<?xml version="1.0" encoding="iso-8859-1"?>
<!-- Generator: Adobe Illustrator 19.0.0, SVG Export Plug-In . SVG Version: 6.00 Build 0)  -->
<svg version="1.1" id="Capa_1" xmlns="http://www.w3.org/2000/svg" xmlns:xlink="http://www.w3.org/1999/xlink" x="0px" y="0px"
	 viewBox="0 0 512 512" style="enable-background:new 0 0 512 512;" xml:space="preserve">
<g>
	<g>
		<path d="M211.286,115.43c-2.027-5.138-7.833-7.661-12.972-5.631c-29.005,11.447-53.76,31.094-71.586,56.818
			c-18.254,26.338-27.901,57.258-27.901,89.416c0,5.523,4.478,9.999,9.999,9.999s9.999-4.477,9.999-9.999
			c0-56.715,34.083-106.813,86.83-127.63C210.793,126.375,213.313,120.568,211.286,115.43z"/>
	</g>
</g>
<g>
	<g>
		<path d="M321.869,246.128c-5.522,0-9.999,4.477-9.999,9.999c0,30.876-25.12,55.997-55.997,55.997
			c-30.877,0-55.997-25.12-55.997-55.997c0-30.876,25.12-55.997,55.997-55.997c5.522,0,9.999-4.477,9.999-9.999
			c0-5.523-4.478-9.999-9.999-9.999c-41.904,0-75.995,34.091-75.995,75.995c0,41.904,34.092,75.995,75.995,75.995
			c41.903,0,75.995-34.091,75.995-75.995C331.868,250.605,327.391,246.128,321.869,246.128z"/>
	</g>
</g>
<g>
	<g>
		<path d="M358.937,245.75c-5.522,0-9.999,4.477-9.999,9.999v0.377c0,5.523,4.478,9.999,9.999,9.999s9.999-4.477,9.999-9.999v-0.377
			C368.936,250.227,364.458,245.75,358.937,245.75z"/>
	</g>
</g>
<g>
	<g>
		<path d="M318.474,336.945c-1.859-1.87-4.439-2.93-7.069-2.93c-2.63,0.001-5.209,1.061-7.07,2.93c-1.86,1.86-2.93,4.43-2.93,7.07
			c0,2.63,1.069,5.21,2.93,7.07c1.861,1.86,4.43,2.92,7.07,2.92c2.63,0,5.21-1.06,7.069-2.92c1.86-1.86,2.931-4.44,2.931-7.07
			C321.405,341.374,320.335,338.805,318.474,336.945z"/>
	</g>
</g>
<g>
	<g>
		<path d="M477.987,362.569c-5.744,0-11.156,1.437-15.906,3.963l-29.592-29.592c-1.876-1.875-4.419-2.929-7.071-2.929h-72.914
			c-5.522,0-9.999,4.477-9.999,9.999c0,5.523,4.478,9.999,9.999,9.999h68.771l26.667,26.667c-2.52,4.746-3.954,10.152-3.954,15.889
			c0,18.747,15.251,33.998,33.998,33.998c18.747,0,33.998-15.251,33.998-33.998C511.985,377.819,496.733,362.569,477.987,362.569z
			 M477.987,410.566c-7.72,0-13.999-6.28-13.999-13.999c0-7.72,6.28-13.999,13.999-13.999s13.999,6.28,13.999,13.999
			C491.986,404.286,485.705,410.566,477.987,410.566z"/>
	</g>
</g>
<g>
	<g>
		<path d="M477.987,81.467c-18.747,0-33.998,15.251-33.998,33.998c0,5.738,1.434,11.144,3.955,15.89l-26.667,26.667H311.86
			c-13.901-7.948-29.512-12.998-45.878-14.483v-18.075h105.441c3.642,0,6.996-1.98,8.755-5.168l30.387-55.069
			c4.122,1.778,8.659,2.768,13.427,2.768c18.747,0,33.998-15.251,33.998-33.998C457.99,15.251,442.739,0,423.992,0
			c-18.747,0-33.998,15.251-33.998,33.998c0,6.556,1.87,12.679,5.097,17.877l-29.571,53.59h-99.538V10.041
			c0-5.523-4.478-9.999-9.999-9.999h-44.838c-5.522,0-9.999,4.477-9.999,9.999v30.943c-20.66,5.234-40.331,13.385-58.662,24.311
			L120.688,43.5c-1.876-1.875-4.42-2.929-7.073-2.929c-2.652,0-5.196,1.055-7.071,2.932l-63.203,63.25
			c-3.903,3.906-3.902,10.234,0.002,14.138l21.771,21.772c-10.925,18.333-19.076,38.003-24.309,58.662H10.015
			c-5.522,0-9.999,4.477-9.999,9.999v89.417c0,5.523,4.478,9.999,9.999,9.999h30.792c5.232,20.659,13.383,40.329,24.309,58.661
			l-21.771,21.772c-3.904,3.904-3.905,10.232-0.002,14.138l63.203,63.25c1.875,1.876,4.419,2.931,7.071,2.932
			c0.001,0,0.001,0,0.002,0c2.652,0,5.195-1.054,7.071-2.929l21.795-21.794c18.333,10.925,38.003,19.077,58.661,24.311v30.894
			c0,5.521,4.474,9.996,9.993,9.999h44.837h0.006c2.651,0,5.194-1.028,7.069-2.902c1.876-1.876,2.931-4.42,2.931-7.073v-95.889
			h99.52l29.601,53.995c-3.234,5.202-5.108,11.332-5.108,17.895c0,18.747,15.251,33.998,33.998,33.998
			c18.747,0,33.998-15.251,33.998-33.998c0-18.747-15.252-33.998-33.999-33.998c-4.756,0-9.285,0.985-13.399,2.757l-30.401-55.456
			c-1.755-3.202-5.117-5.193-8.768-5.193H265.98v-26.921c0-5.523-4.478-9.999-9.999-9.999c-51.368,0-93.158-41.79-93.158-93.158
			c0-50.746,40.787-92.139,91.299-93.134c0.569,0.101,1.152,0.163,1.751,0.163c38.701,0,73.766,24.36,87.255,60.615
			c1.498,4.027,5.314,6.516,9.372,6.516c1.158,0,2.337-0.203,3.486-0.63c5.176-1.926,7.811-7.682,5.885-12.858
			c-5.467-14.695-13.863-27.768-24.356-38.684h87.903c2.652,0,5.195-1.054,7.071-2.929l29.592-29.592
			c4.75,2.526,10.162,3.963,15.906,3.963c18.747,0,33.998-15.251,33.998-33.998C511.985,96.718,496.733,81.467,477.987,81.467z
			 M423.992,19.999c7.72,0,13.999,6.28,13.999,13.999s-6.28,13.999-13.999,13.999s-13.999-6.28-13.999-13.999
			S416.272,19.999,423.992,19.999z M423.992,464.003c7.72,0,13.999,6.28,13.999,13.999s-6.281,13.999-13.999,13.999
			c-7.72,0-13.999-6.28-13.999-13.999S416.272,464.003,423.992,464.003z M245.983,143.314
			c-57.727,5.08-103.159,53.695-103.159,112.719s45.43,107.639,103.158,112.719v123.244l-24.839-0.014v-28.828
			c0-4.713-3.291-8.786-7.899-9.776c-23.822-5.118-46.296-14.431-66.799-27.681c-3.958-2.557-9.164-2.005-12.498,1.328
			l-20.327,20.328l-49.067-49.104l20.31-20.31c3.332-3.333,3.886-8.539,1.327-12.498c-13.249-20.503-22.562-42.976-27.678-66.798
			c-0.99-4.608-5.063-7.899-9.776-7.899H20.014v-69.418h28.721c4.714,0,8.786-3.292,9.776-7.899
			c5.117-23.822,14.429-46.295,27.678-66.798c2.559-3.958,2.005-9.165-1.327-12.498l-20.31-20.31l49.067-49.104l20.327,20.328
			c3.334,3.334,8.54,3.885,12.498,1.328c20.502-13.249,42.976-22.563,66.799-27.681c4.608-0.99,7.899-5.063,7.899-9.776V20.041
			h24.839V143.314z M477.987,129.463c-7.72,0-13.999-6.28-13.999-13.999c0-7.719,6.28-13.999,13.999-13.999
			s13.999,6.28,13.999,13.999S485.706,129.463,477.987,129.463z"/>
	</g>
</g>
<g>
	<g>
		<path d="M477.987,222.16c-15.268,0-28.215,10.117-32.495,23.999H415.99c-5.522,0-9.999,4.477-9.999,9.999s4.478,9.999,9.999,9.999
			h29.501c4.28,13.881,17.227,23.999,32.495,23.999c18.747,0,33.998-15.251,33.998-33.998
			C511.985,237.411,496.733,222.16,477.987,222.16z M477.987,270.157c-7.72,0-13.999-6.28-13.999-13.999s6.28-13.999,13.999-13.999
			s13.999,6.28,13.999,13.999S485.705,270.157,477.987,270.157z"/>
	</g>
</g>
<g>
</g>
<g>
</g>
<g>
</g>
<g>
</g>
<g>
</g>
<g>
</g>
<g>
</g>
<g>
</g>
<g>
</g>
<g>
</g>
<g>
</g>
<g>
</g>
<g>
</g>
<g>
</g>
<g>
</g>
</svg>
