<svg xmlns="http://www.w3.org/2000/svg" xmlns:xlink="http://www.w3.org/1999/xlink" viewBox="0 0 501.41 721.67"><defs><style>.cls-1{fill:url(#_1);}.cls-2{fill:url(#Безымянный_градиент_191);}.cls-3{fill:url(#_1-2);}.cls-4{fill:url(#Безымянный_градиент_191-2);}.cls-5{fill:url(#Безымянный_градиент_181);}.cls-6{fill:url(#Безымянный_градиент_181-2);}.cls-7{fill:url(#Безымянный_градиент_181-3);}.cls-8{fill:url(#Безымянный_градиент_181-4);}.cls-9{fill:url(#Безымянный_градиент_181-5);}.cls-10{fill:url(#Безымянный_градиент_181-6);}.cls-11{fill:url(#Безымянный_градиент_181-7);}.cls-12{fill:url(#Безымянный_градиент_181-8);}.cls-13{fill:url(#Безымянный_градиент_181-9);}.cls-14{fill:url(#Безымянный_градиент_181-10);}.cls-15{fill:url(#Безымянный_градиент_181-11);}.cls-16{fill:url(#Безымянный_градиент_181-12);}.cls-17{fill:url(#Безымянный_градиент_181-13);}.cls-18{fill:url(#Безымянный_градиент_181-14);}.cls-19{fill:url(#Безымянный_градиент_181-15);}.cls-20{fill:url(#_1-3);}.cls-21{fill:url(#Безымянный_градиент_191-3);}.cls-22{fill:url(#_1-4);}.cls-23{fill:url(#Безымянный_градиент_191-4);}.cls-24{fill:url(#_1-5);}.cls-25{fill:url(#Безымянный_градиент_191-5);}.cls-26{fill:url(#_1-6);}.cls-27{fill:url(#_1-7);}.cls-28{fill:url(#_1-8);}.cls-29{fill:url(#_1-9);}.cls-30{fill:url(#_1-10);}.cls-31{fill:url(#_1-11);}.cls-32{fill:url(#_1-12);}.cls-33{fill:url(#_1-13);}.cls-34{fill:url(#_1-14);}.cls-35{fill:url(#_1-15);}.cls-36{fill:url(#_1-16);}.cls-37{fill:url(#Безымянный_градиент_226);}.cls-38{fill:url(#Безымянный_градиент_181-16);}.cls-39{fill:url(#Безымянный_градиент_181-17);}.cls-40{fill:url(#Безымянный_градиент_181-18);}.cls-41{fill:url(#Безымянный_градиент_181-19);}.cls-42{fill:url(#Безымянный_градиент_181-20);}.cls-43{fill:url(#Безымянный_градиент_181-21);}.cls-44{fill:url(#Безымянный_градиент_181-22);}.cls-45{fill:url(#Безымянный_градиент_181-23);}.cls-46{fill:url(#Безымянный_градиент_181-24);}.cls-47{fill:url(#Безымянный_градиент_181-25);}.cls-48{fill:url(#Безымянный_градиент_181-26);}.cls-49{fill:url(#Безымянный_градиент_181-27);}.cls-50{fill:url(#Безымянный_градиент_181-28);}.cls-51{fill:url(#Безымянный_градиент_181-29);}.cls-52{fill:url(#Безымянный_градиент_181-30);}.cls-53{fill:url(#Безымянный_градиент_181-31);}.cls-54{fill:url(#Безымянный_градиент_181-32);}.cls-55{fill:url(#Безымянный_градиент_181-33);}.cls-56{fill:url(#Безымянный_градиент_181-34);}.cls-57{fill:url(#Безымянный_градиент_181-35);}.cls-58{fill:url(#Безымянный_градиент_181-36);}.cls-59{fill:url(#Безымянный_градиент_181-37);}.cls-60{fill:url(#Безымянный_градиент_181-38);}.cls-61{fill:url(#Безымянный_градиент_181-39);}.cls-62{fill:url(#Безымянный_градиент_181-40);}.cls-63{fill:url(#Безымянный_градиент_181-41);}.cls-64{fill:url(#Безымянный_градиент_181-42);}.cls-65{fill:url(#Безымянный_градиент_181-43);}.cls-66{fill:url(#Безымянный_градиент_181-44);}.cls-67{fill:url(#Безымянный_градиент_181-45);}.cls-68{fill:url(#Безымянный_градиент_181-46);}</style><linearGradient id="_1" x1="501.36" y1="536.36" x2="1.02" y2="536.36" gradientUnits="userSpaceOnUse"><stop offset="0.1" stop-color="#0893ea"/><stop offset="0.9" stop-color="#2af590"/></linearGradient><linearGradient id="Безымянный_градиент_191" x1="0.91" y1="628.97" x2="501.36" y2="628.97" gradientUnits="userSpaceOnUse"><stop offset="0.1" stop-color="#0893ea"/><stop offset="0.43" stop-color="#12b1cf"/><stop offset="0.52" stop-color="#1ac6bb"/><stop offset="0.58" stop-color="#22dda6"/><stop offset="0.9" stop-color="#2af590"/></linearGradient><linearGradient id="_1-2" x1="501.41" y1="446.78" x2="1.08" y2="446.78" xlink:href="#_1"/><linearGradient id="Безымянный_градиент_191-2" x1="0.85" y1="559.58" x2="501.41" y2="559.58" xlink:href="#Безымянный_градиент_191"/><linearGradient id="Безымянный_градиент_181" x1="190.8" y1="564.19" x2="37.42" y2="564.19" gradientUnits="userSpaceOnUse"><stop offset="0.1" stop-color="#21d4fd"/><stop offset="0.9" stop-color="#fc00ff"/></linearGradient><linearGradient id="Безымянный_градиент_181-2" x1="56.59" y1="513.2" x2="31.72" y2="527.56" xlink:href="#Безымянный_градиент_181"/><linearGradient id="Безымянный_градиент_181-3" x1="67.69" y1="519.6" x2="42.81" y2="533.96" xlink:href="#Безымянный_градиент_181"/><linearGradient id="Безымянный_градиент_181-4" x1="79.09" y1="526.18" x2="54.21" y2="540.55" xlink:href="#Безымянный_градиент_181"/><linearGradient id="Безымянный_градиент_181-5" x1="90.18" y1="532.59" x2="65.31" y2="546.95" xlink:href="#Безымянный_градиент_181"/><linearGradient id="Безымянный_градиент_181-6" x1="101.57" y1="539.17" x2="76.71" y2="553.53" xlink:href="#Безымянный_градиент_181"/><linearGradient id="Безымянный_градиент_181-7" x1="112.67" y1="545.58" x2="87.8" y2="559.94" xlink:href="#Безымянный_градиент_181"/><linearGradient id="Безымянный_градиент_181-8" x1="124.07" y1="552.16" x2="99.2" y2="566.52" xlink:href="#Безымянный_градиент_181"/><linearGradient id="Безымянный_градиент_181-9" x1="135.17" y1="558.57" x2="110.3" y2="572.92" xlink:href="#Безымянный_градиент_181"/><linearGradient id="Безымянный_градиент_181-10" x1="146.32" y1="565.01" x2="121.45" y2="579.36" xlink:href="#Безымянный_градиент_181"/><linearGradient id="Безымянный_градиент_181-11" x1="157.41" y1="571.41" x2="132.54" y2="585.77" xlink:href="#Безымянный_градиент_181"/><linearGradient id="Безымянный_градиент_181-12" x1="168.81" y1="577.99" x2="143.94" y2="592.35" xlink:href="#Безымянный_градиент_181"/><linearGradient id="Безымянный_градиент_181-13" x1="179.91" y1="584.4" x2="155.04" y2="598.76" xlink:href="#Безымянный_градиент_181"/><linearGradient id="Безымянный_градиент_181-14" x1="191.31" y1="590.98" x2="166.44" y2="605.34" xlink:href="#Безымянный_градиент_181"/><linearGradient id="Безымянный_градиент_181-15" x1="202.41" y1="597.38" x2="177.53" y2="611.75" xlink:href="#Безымянный_градиент_181"/><linearGradient id="_1-3" x1="251.25" y1="504.13" x2="251.25" y2="214.32" xlink:href="#_1"/><linearGradient id="Безымянный_градиент_191-3" x1="0.85" y1="472.02" x2="501.41" y2="472.02" xlink:href="#Безымянный_градиент_191"/><linearGradient id="_1-4" x1="251.25" y1="414.92" x2="251.25" y2="125.11" xlink:href="#_1"/><linearGradient id="Безымянный_градиент_191-4" x1="0.85" y1="382.81" x2="501.41" y2="382.81" xlink:href="#Безымянный_градиент_191"/><linearGradient id="_1-5" x1="251.24" y1="327.36" x2="251.24" y2="37.55" xlink:href="#_1"/><linearGradient id="Безымянный_градиент_191-5" x1="0.85" y1="295.26" x2="501.41" y2="295.26" xlink:href="#Безымянный_градиент_191"/><linearGradient id="_1-6" x1="236.39" y1="138.71" x2="302.07" y2="176.63" xlink:href="#_1"/><linearGradient id="_1-7" x1="194.34" y1="138.71" x2="260.02" y2="176.63" xlink:href="#_1"/><linearGradient id="_1-8" x1="262.74" y1="141.78" x2="317.77" y2="173.55" xlink:href="#_1"/><linearGradient id="_1-9" x1="220.69" y1="141.78" x2="275.72" y2="173.55" xlink:href="#_1"/><linearGradient id="_1-10" x1="178.64" y1="141.78" x2="233.67" y2="173.55" xlink:href="#_1"/><linearGradient id="_1-11" x1="289.1" y1="144.86" x2="333.47" y2="170.48" xlink:href="#_1"/><linearGradient id="_1-12" x1="162.94" y1="144.86" x2="208.49" y2="171.16" xlink:href="#_1"/><linearGradient id="_1-13" x1="315.45" y1="147.93" x2="349.18" y2="167.4" xlink:href="#_1"/><linearGradient id="_1-14" x1="147.24" y1="147.93" x2="182.14" y2="168.09" xlink:href="#_1"/><linearGradient id="_1-15" x1="54.87" y1="49.95" x2="443.44" y2="274.29" xlink:href="#_1"/><linearGradient id="_1-16" x1="500.61" y1="144.97" x2="0.08" y2="144.97" xlink:href="#_1"/><linearGradient id="Безымянный_градиент_226" x1="323.93" y1="664.61" x2="58.04" y2="204.08" gradientUnits="userSpaceOnUse"><stop offset="0.66" stop-color="#fc00ff"/><stop offset="0.9" stop-color="#21d4fd"/></linearGradient><linearGradient id="Безымянный_градиент_181-16" x1="168.36" y1="263.69" x2="63.46" y2="324.25" xlink:href="#Безымянный_градиент_181"/><linearGradient id="Безымянный_градиент_181-17" x1="190.8" y1="473.32" x2="37.42" y2="473.32" xlink:href="#Безымянный_градиент_181"/><linearGradient id="Безымянный_градиент_181-18" x1="56.59" y1="422.34" x2="31.72" y2="436.7" xlink:href="#Безымянный_градиент_181"/><linearGradient id="Безымянный_градиент_181-19" x1="67.69" y1="428.74" x2="42.81" y2="443.1" xlink:href="#Безымянный_градиент_181"/><linearGradient id="Безымянный_градиент_181-20" x1="79.09" y1="435.32" x2="54.21" y2="449.69" xlink:href="#Безымянный_градиент_181"/><linearGradient id="Безымянный_градиент_181-21" x1="90.18" y1="441.73" x2="65.31" y2="456.09" xlink:href="#Безымянный_градиент_181"/><linearGradient id="Безымянный_градиент_181-22" x1="101.57" y1="448.31" x2="76.71" y2="462.67" xlink:href="#Безымянный_градиент_181"/><linearGradient id="Безымянный_градиент_181-23" x1="112.67" y1="454.72" x2="87.8" y2="469.08" xlink:href="#Безымянный_градиент_181"/><linearGradient id="Безымянный_градиент_181-24" x1="124.07" y1="461.3" x2="99.2" y2="475.66" xlink:href="#Безымянный_градиент_181"/><linearGradient id="Безымянный_градиент_181-25" x1="135.17" y1="467.71" x2="110.3" y2="482.06" xlink:href="#Безымянный_градиент_181"/><linearGradient id="Безымянный_градиент_181-26" x1="146.32" y1="474.15" x2="121.45" y2="488.5" xlink:href="#Безымянный_градиент_181"/><linearGradient id="Безымянный_градиент_181-27" x1="157.41" y1="480.55" x2="132.54" y2="494.91" xlink:href="#Безымянный_градиент_181"/><linearGradient id="Безымянный_градиент_181-28" x1="168.81" y1="487.13" x2="143.94" y2="501.49" xlink:href="#Безымянный_градиент_181"/><linearGradient id="Безымянный_градиент_181-29" x1="179.91" y1="493.54" x2="155.04" y2="507.9" xlink:href="#Безымянный_градиент_181"/><linearGradient id="Безымянный_градиент_181-30" x1="191.31" y1="500.12" x2="166.44" y2="514.48" xlink:href="#Безымянный_градиент_181"/><linearGradient id="Безымянный_градиент_181-31" x1="202.41" y1="506.52" x2="177.53" y2="520.88" xlink:href="#Безымянный_градиент_181"/><linearGradient id="Безымянный_градиент_181-32" x1="190.8" y1="387.42" x2="37.42" y2="387.42" xlink:href="#Безымянный_градиент_181"/><linearGradient id="Безымянный_градиент_181-33" x1="56.59" y1="336.43" x2="31.72" y2="350.79" xlink:href="#Безымянный_градиент_181"/><linearGradient id="Безымянный_градиент_181-34" x1="67.69" y1="342.84" x2="42.81" y2="357.2" xlink:href="#Безымянный_градиент_181"/><linearGradient id="Безымянный_градиент_181-35" x1="79.09" y1="349.42" x2="54.21" y2="363.78" xlink:href="#Безымянный_градиент_181"/><linearGradient id="Безымянный_градиент_181-36" x1="90.18" y1="355.82" x2="65.31" y2="370.18" xlink:href="#Безымянный_градиент_181"/><linearGradient id="Безымянный_градиент_181-37" x1="101.57" y1="362.41" x2="76.71" y2="376.77" xlink:href="#Безымянный_градиент_181"/><linearGradient id="Безымянный_градиент_181-38" x1="112.67" y1="368.81" x2="87.8" y2="383.17" xlink:href="#Безымянный_градиент_181"/><linearGradient id="Безымянный_градиент_181-39" x1="124.07" y1="375.4" x2="99.2" y2="389.75" xlink:href="#Безымянный_градиент_181"/><linearGradient id="Безымянный_градиент_181-40" x1="135.17" y1="381.8" x2="110.3" y2="396.16" xlink:href="#Безымянный_градиент_181"/><linearGradient id="Безымянный_градиент_181-41" x1="146.32" y1="388.24" x2="121.45" y2="402.6" xlink:href="#Безымянный_градиент_181"/><linearGradient id="Безымянный_градиент_181-42" x1="157.41" y1="394.64" x2="132.54" y2="409" xlink:href="#Безымянный_градиент_181"/><linearGradient id="Безымянный_градиент_181-43" x1="168.81" y1="401.23" x2="143.94" y2="415.59" xlink:href="#Безымянный_градиент_181"/><linearGradient id="Безымянный_градиент_181-44" x1="179.91" y1="407.63" x2="155.04" y2="421.99" xlink:href="#Безымянный_градиент_181"/><linearGradient id="Безымянный_градиент_181-45" x1="191.31" y1="414.22" x2="166.44" y2="428.57" xlink:href="#Безымянный_градиент_181"/><linearGradient id="Безымянный_градиент_181-46" x1="202.41" y1="420.62" x2="177.53" y2="434.98" xlink:href="#Безымянный_градиент_181"/></defs><title>server_3</title><g id="Слой_2" data-name="Слой 2"><g id="Слой_1-2" data-name="Слой 1"><path class="cls-1" d="M490.75,521.57c14.08,8.13,14.16,21.44.16,29.58l-213.4,124c-14,8.14-37,8.14-51.06,0l-214.8-124c-14.09-8.14-14.17-21.45-.17-29.58l213.4-124c14-8.14,37-8.14,51.07,0Z"/><path class="cls-2" d="M501.19,538.45h0a13,13,0,0,1-.49,2h0a14.22,14.22,0,0,1-.81,1.94h0a16.13,16.13,0,0,1-1.12,1.86l-.05.08a18.73,18.73,0,0,1-1.31,1.64l-.22.25a22.09,22.09,0,0,1-1.68,1.65l-.06.05a26.17,26.17,0,0,1-2.08,1.65l0,0q-1.14.81-2.43,1.56l-213.4,124q-1.31.76-2.72,1.43h0q-1.41.67-2.9,1.24h0q-1.49.57-3.06,1h0q-1.57.48-3.2.86h0q-1.63.38-3.3.67h0q-1.67.29-3.38.48h0q-1.71.19-3.43.29h0q-1.72.1-3.46.1h0q-1.73,0-3.46-.09h0q-1.73-.09-3.43-.29h0q-1.7-.19-3.37-.47h0q-1.65-.28-3.25-.65l-.11,0c-.84-.2-1.66-.43-2.47-.66l-1.2-.36c-.61-.19-1.2-.4-1.8-.61l-1.1-.4c-.63-.25-1.24-.51-1.85-.78-.3-.13-.61-.26-.9-.4-.89-.42-1.75-.87-2.58-1.35l-214.8-124C4.55,547.06,1,541.66,1,536.26l-.11,40.4c0,5.4,3.53,10.8,10.62,14.9l214.8,124c.83.48,1.69.92,2.58,1.35.29.14.6.26.89.39.61.27,1.22.54,1.86.79l1.1.4c.59.21,1.19.42,1.8.61l1.19.36.88.26,1.21.31.38.09.1,0,.35.08.62.14.62.13.62.12.55.1.43.08h.08l.35.06.43.07.43.07.43.06.42.06.34,0,.34,0,.34,0,.29,0H245l.34,0,.34,0,.34,0,.34,0,.29,0,.29,0,.29,0,.29,0,.29,0,.29,0,.29,0,.29,0h7.56l.21,0,.21,0,.21,0,.21,0,.21,0,.21,0,.2,0,.2,0,.2,0,.2,0,.2,0,.2,0h.2l.2,0,.2,0,.2,0,.2,0,.2,0,.2,0,.19,0,.19,0,.19,0,.19,0,.19,0,.19,0,.19,0,.19,0,.19,0,.19,0,.12,0h.07l.19,0,.19,0,.19,0,.19,0,.19,0,.19,0,.19,0,.19,0,.19,0,.19,0,.19,0,.19,0,.19,0,.19,0,.19,0,.19,0,.19,0h0l.15,0,.19,0,.19,0,.19,0,.19,0,.19,0,.19,0,.19,0,.19,0,.19-.05.19-.05.18-.05.18-.05.18-.05.19-.06.19-.06.19-.06.05,0h0l.14,0,.19-.06.19-.06.19-.06.19-.06.19-.06.19-.06.19-.06.19-.06.19-.06.2-.07.2-.07.2-.07.2-.07.2-.07.2-.07h0l.15-.06.2-.08.2-.08.19-.08.19-.08.19-.08.21-.09.22-.09.22-.09.21-.09.21-.09.21-.1.21-.1.21-.1.08,0h0l.13-.06.21-.1.21-.1.24-.12.24-.12.24-.12.24-.13.24-.13.24-.13.24-.13.23-.13.23-.13,0,0,213.4-124,.26-.15.29-.18.29-.18.28-.18.28-.18.28-.18.27-.18.37-.26.11-.08,0,0,.25-.18.37-.28.36-.28.37-.3.66-.56.07-.07.05,0,.5-.45c.42-.39.81-.79,1.18-1.2l.22-.25c.18-.21.37-.41.54-.62s.37-.47.54-.7l.22-.31.05-.08.12-.17.23-.36.22-.36.21-.36.19-.34.13-.25,0,0h0l.11-.21.12-.25.11-.25.11-.25.1-.25.08-.2.07-.2.07-.2,0-.13h0l0-.06.06-.2.06-.2.06-.2.05-.2,0-.17,0-.17,0-.17,0-.17,0-.17,0-.17,0-.12h0v0l0-.17,0-.17,0-.16,0-.15,0-.15v-.73s0-.1,0-.15,0-.1,0-.15,0-.09,0-.13l.11-40.4A12.37,12.37,0,0,1,501.19,538.45Z"/><path class="cls-3" d="M490.8,432c14.08,8.13,14.16,21.44.17,29.57l-213.4,124c-14,8.14-37,8.14-51.06,0l-214.8-124c-14.09-8.14-14.17-21.45-.17-29.58l213.4-124c14-8.13,37-8.13,51.06,0Z"/><path class="cls-4" d="M501.24,448.88h0a13,13,0,0,1-.49,2h0a14.22,14.22,0,0,1-.82,1.95h0a16.12,16.12,0,0,1-1.14,1.89h0a18.73,18.73,0,0,1-1.43,1.8l-.07.07a22.12,22.12,0,0,1-1.6,1.58l-.22.2q-.92.8-2,1.56l-.13.1c-.74.53-1.54,1-2.39,1.54l-213.4,124q-1.31.76-2.72,1.43h0a43.69,43.69,0,0,1-6,2.29h0q-1.57.48-3.19.86h0q-1.63.38-3.3.67h0q-1.67.29-3.38.48h0q-1.7.19-3.43.29h0q-1.72.1-3.46.1h0q-1.73,0-3.46-.09h0q-1.73-.09-3.43-.29h0q-1.71-.19-3.38-.48h0q-1.67-.28-3.29-.66h0q-1.59-.37-3.13-.84l-.13,0c-.68-.21-1.34-.45-2-.68-.83-.29-1.64-.61-2.43-.95-.35-.15-.7-.29-1-.44-1.1-.5-2.18-1-3.2-1.62l-214.8-124C5.49,458,2,453.41,1.24,448.7a12.37,12.37,0,0,1-.16-2l-.23,80.8c0,5.4,3.53,10.8,10.62,14.9l214.8,124c1,.59,2.09,1.12,3.2,1.62.34.16.7.3,1,.44.8.34,1.6.65,2.43.95.21.07.4.17.61.24l.89.29.5.15.13,0,.28.09.64.18.51.14.51.13.51.13.52.13.17,0h0l.23.05.37.08.37.08.37.08.37.08.38.07.38.07.33.06.3.05.19,0h0l.1,0,.3.05.3,0,.3,0,.3,0,.3,0,.31,0,.27,0,.26,0,.26,0,.26,0,.26,0H245l.26,0,.26,0,.26,0,.26,0,.26,0,.23,0,.23,0,.23,0,.23,0,.23,0,.23,0h9l.19,0,.19,0,.19,0,.19,0,.19,0,.19,0,.19,0,.19,0,.19,0,.19,0h.19l.19,0,.19,0,.19,0,.19,0,.19,0,.19,0,.19,0,.19,0,.19,0,.19,0,.19,0,.19,0,.19,0,.19,0,.19,0,.19,0,.19,0,.1,0h.09l.19,0,.19,0,.19,0,.19,0,.19,0,.19,0,.19,0,.19,0,.19,0,.19,0,.19,0,.19,0,.19,0,.19,0,.19,0,.19,0,.19,0h0l.16,0,.2,0,.2,0,.19,0,.19,0,.19,0,.19-.05.19-.05.19-.05.19-.05.19-.05.19-.05.19-.05.2-.06.21-.06.21-.06.1,0h0l.1,0,.21-.06.2-.06.2-.07.2-.07.2-.07.2-.07.2-.07.2-.07.21-.07.23-.08.23-.08.22-.08.22-.08.22-.08.22-.09.22-.09.22-.09.22-.09.22-.09.24-.1.26-.11.26-.11.26-.11.26-.12.25-.12.25-.12h0l.22-.11.25-.12.3-.15.32-.16.32-.17.32-.17.31-.17.31-.17.31-.18.07,0,213.4-124,.36-.21.45-.27.44-.28.43-.28L493,541l.17-.12.13-.1.57-.42c.49-.38,1-.76,1.4-1.15l.22-.2c.29-.26.59-.52.86-.79l.5-.52.25-.27.07-.07.16-.18.32-.38.24-.29.23-.3.22-.3.22-.3,0-.06h0l.12-.18.14-.21.14-.22.13-.22.13-.22.13-.22.12-.22.1-.19.09-.17,0-.05h0l.06-.12.09-.18.08-.18L500,533l.08-.18.07-.18.07-.18.06-.16.06-.15.06-.15.05-.15.05-.15h0l0-.14,0-.15,0-.15,0-.15,0-.15,0-.15,0-.14,0-.14,0-.14,0-.14,0-.14,0-.14,0-.14,0-.14,0-.14,0-.14,0-.14,0-.13v-1.25s0-.08,0-.13v-.08l.23-80.8A12.37,12.37,0,0,1,501.24,448.88Z"/><path class="cls-5" d="M45,504.28l-.11,39.92c0,2.88-1.13,4.6-2.5,3.81l-2.47-1.42c-1.37-.79-2.48-3.8-2.47-6.69L37.53,500c0-2.88,1.13-4.6,2.5-3.81l2.47,1.42C43.87,498.39,45,501.4,45,504.28ZM53.6,504l-2.47-1.42c-1.37-.79-2.5.93-2.5,3.81l-.11,39.92c0,2.88,1.1,5.89,2.47,6.69l2.47,1.42c1.36.79,2.5-.93,2.5-3.81l.11-39.92C56.08,507.8,55,504.79,53.6,504ZM65,510.58l-2.47-1.42c-1.37-.79-2.5.93-2.5,3.81l-.11,39.92c0,2.88,1.1,5.89,2.47,6.69L64.86,561c1.36.79,2.5-.93,2.5-3.81l.11-39.92C67.48,514.38,66.36,511.37,65,510.58ZM76.09,517l-2.46-1.42c-1.37-.79-2.51.92-2.51,3.8L71,559.29c0,2.88,1.11,5.9,2.48,6.69l2.46,1.42c1.37.79,2.51-.92,2.51-3.8l.11-39.92C78.58,520.79,77.46,517.78,76.09,517Zm11.4,6.58L85,522.14c-1.36-.79-2.5.93-2.5,3.81l-.11,39.92c0,2.88,1.11,5.9,2.47,6.69L87.34,574c1.37.79,2.5-.93,2.5-3.81L90,530.25C90,527.37,88.86,524.36,87.49,523.57ZM98.58,530l-2.47-1.42c-1.37-.79-2.5.93-2.5,3.81l-.11,39.92c0,2.88,1.1,5.89,2.47,6.69l2.47,1.42c1.37.79,2.5-.93,2.5-3.81l.11-39.92C101.07,533.77,100,530.76,98.58,530Zm11.4,6.58-2.47-1.42c-1.37-.79-2.5.93-2.5,3.81l-.11,39.92c0,2.88,1.1,5.89,2.47,6.69l2.47,1.42c1.37.79,2.5-.93,2.5-3.81l.11-39.92C112.47,540.36,111.36,537.35,110,536.56Zm11.1,6.41-2.47-1.42c-1.37-.79-2.5.93-2.5,3.81L116,585.27c0,2.88,1.1,5.89,2.47,6.68l2.47,1.43c1.37.79,2.5-.93,2.5-3.81l.11-39.92C123.56,546.76,122.45,543.75,121.08,543Zm11.15,6.44L129.77,548c-1.37-.79-2.51.92-2.51,3.8l-.11,39.92c0,2.88,1.11,5.9,2.48,6.69l2.46,1.42c1.37.79,2.5-.93,2.5-3.81l.11-39.92C134.71,553.2,133.6,550.19,132.23,549.4Zm11.1,6.41-2.47-1.42c-1.37-.79-2.5.93-2.5,3.81l-.11,39.92c0,2.88,1.1,5.89,2.47,6.68l2.47,1.42c1.37.79,2.5-.93,2.5-3.81l.11-39.92C145.81,559.61,144.7,556.6,143.33,555.81Zm11.4,6.58L152.26,561c-1.37-.79-2.5.93-2.5,3.81l-.11,39.92c0,2.88,1.1,5.89,2.47,6.69l2.47,1.42c1.37.79,2.5-.93,2.5-3.81l.11-39.92C157.21,566.19,156.1,563.18,154.73,562.39Zm11.1,6.41-2.47-1.42c-1.37-.79-2.5.93-2.5,3.81l-.11,39.92c0,2.88,1.1,5.89,2.47,6.69l2.47,1.42c1.37.79,2.5-.93,2.5-3.81l.11-39.92C168.31,572.6,167.19,569.59,165.82,568.79Zm11.4,6.58L174.76,574c-1.37-.79-2.5.93-2.5,3.81l-.11,39.92c0,2.88,1.1,5.89,2.47,6.69l2.47,1.42c1.37.79,2.5-.93,2.5-3.81l.11-39.92C179.71,579.18,178.6,576.17,177.23,575.38Zm11.1,6.41-2.47-1.42c-1.37-.79-2.5.93-2.5,3.81l-.11,39.92c0,2.88,1.1,5.89,2.47,6.69l2.47,1.42c1.36.79,2.5-.93,2.5-3.81l.11-39.92C190.8,585.58,189.68,582.57,188.32,581.78Z"/><path class="cls-6" d="M48.47,502.15v-1h0v-3h0v-.67l0,0,0,0,0,0,0,0v0h0l0,0,0-.06a5.54,5.54,0,0,0-.53-.83s-.05-.09-.08-.13v-.14H46l-2.47-1.42H42.39l0,0h0l-3.49,2a1.13,1.13,0,0,1,1.2,0l2.47,1.42a2.92,2.92,0,0,1,.8.76,5.55,5.55,0,0,1,.53.83l.06.11h0a8.72,8.72,0,0,1,.37.85h0a12,12,0,0,1,.67,3h0c0,.36,0,.72,0,1.08l-.11,39.92a9.51,9.51,0,0,1-.1,1.37h0a6.26,6.26,0,0,1-.27,1.13h0a3.48,3.48,0,0,1-.41.84h0a1.71,1.71,0,0,1-.53.51L47,546a1.45,1.45,0,0,0,.29-.22l0,0,0,0,0-.05,0,0,0,0,0,0,0,0h0l0,0,0,0,0,0,0,0,0,0,0,0,0,0,0,0,0,0,0,0,0,0,0,0v-2.95h0l.11-39.93v-.1Z"/><path class="cls-7" d="M59.57,508.56v-2h0v-2.62l0,0,0,0,0,0,0,0,0,0,0,0,0,0a6.29,6.29,0,0,0-.36-.62l-.11-.15c-.06-.08-.11-.17-.18-.24v-.1l0,0v0h-.59l-2.47-1.42H53.48l0,0h0l-3.49,2a1.13,1.13,0,0,1,1.2,0L53.6,504a3,3,0,0,1,.89.88l.11.15a9.68,9.68,0,0,1,1.29,3.5h0a12.11,12.11,0,0,1,.19,2.15L56,550.61a9.44,9.44,0,0,1-.1,1.37h0a6.21,6.21,0,0,1-.27,1.12h0a3.47,3.47,0,0,1-.41.84h0a1.72,1.72,0,0,1-.53.51l3.49-2a1.46,1.46,0,0,0,.29-.23l0,0,0,0,0-.05,0,0,0,0,0,0,0,0h0l0,0,0,0,0,0,0,0,0,0,0,0,0,0,0,0,0,0,0,0,0,0,0,0,0,0v-.42h0v-2.47h0l.11-39.92v-.1Z"/><path class="cls-8" d="M71,515.1v-3h0v-.95h0v-.61l0,0,0,0,0,0,0,0,0,0,0,0,0,0,0,0a6.28,6.28,0,0,0-.36-.62l-.11-.15c-.06-.08-.11-.17-.17-.24v-.07l0,0v0l0,0v0h-.59L66,507.13H64.89l0,0h0l-3.49,2a1.06,1.06,0,0,1,.57-.15h0a1.32,1.32,0,0,1,.63.19L65,510.58a2.38,2.38,0,0,1,.5.39h0a4,4,0,0,1,.39.48l.11.15a6.35,6.35,0,0,1,.39.67h0a8.83,8.83,0,0,1,.37.85h0c.11.3.21.62.3,1h0a12.26,12.26,0,0,1,.42,3.18l-.11,39.92a7.76,7.76,0,0,1-.37,2.5h0A2.45,2.45,0,0,1,66,561l3.49-2a1.45,1.45,0,0,0,.29-.23l0,0,0,0,0-.05,0,0,0,0,0,0,0,0,0,0,0,0,0,0,0,0,0,0,0,0,0,0,0,0,0,0,0,0,0,0,0,0,0,0v-.42h0v-2.47h0L71,515.24v-.14Z"/><path class="cls-9" d="M82.06,521.51v-.95h0v-1.05h0v-2h0v-.57l0,0,0,0,0,0,0,0,0,0,0,0,0,0,0,0h0l0,0a6.28,6.28,0,0,0-.37-.63l-.11-.16c-.06-.08-.11-.17-.17-.24v-.12l0,0h-.6l-2.46-1.42H76l0,0h0l-3.49,2a1.07,1.07,0,0,1,.57-.15h0a1.33,1.33,0,0,1,.63.19L76.09,517a2.41,2.41,0,0,1,.5.4h0a4.07,4.07,0,0,1,.39.48l.11.16a6.35,6.35,0,0,1,.39.67h0a9.86,9.86,0,0,1,.67,1.81h0a12.24,12.24,0,0,1,.42,3.18l-.11,39.92a9.43,9.43,0,0,1-.1,1.37h0a6.22,6.22,0,0,1-.27,1.12h0a2.45,2.45,0,0,1-.94,1.35l3.49-2a1.46,1.46,0,0,0,.29-.22l0,0,0-.05,0-.05,0,0,0,0,0,0,0,0,0,0,0,0,0,0,0,0,0,0,0,0,0,0,0,0,0,0,0,0,0,0,0,0,0,0v-.42h0v-1.11h0v-1.36h0l.11-39.92v-.14Z"/><path class="cls-10" d="M93.45,528.08v-.94h0V525h0v-1.62l0,0,0,0,0,0,0,0v0h0l0,0,0-.06a5.56,5.56,0,0,0-.53-.83s-.05-.09-.08-.13v-.12l0,0H91l-2.47-1.42H87.38l0,0h0l-3.49,2a1.06,1.06,0,0,1,.57-.15h0a1.31,1.31,0,0,1,.62.19l2.47,1.42a2.92,2.92,0,0,1,.8.76,5.56,5.56,0,0,1,.53.83l.06.11h0a9.83,9.83,0,0,1,.67,1.81h0a12.4,12.4,0,0,1,.37,2.09h0c0,.36,0,.72,0,1.08l-.11,39.92a9.51,9.51,0,0,1-.1,1.37h0a6.25,6.25,0,0,1-.27,1.13h0a3.47,3.47,0,0,1-.41.84h0a1.71,1.71,0,0,1-.53.51L92,572a1.45,1.45,0,0,0,.29-.22l0,0,0,0,0-.05,0,0,0,0,0,0,0,0h0l0,0,0,0,0,0,0,0,0,0,0,0,0,0,0,0,0,0,0,0,0,0,0,0v-.46h0v-1.12h0v-1.36h0l.11-39.92v-.14Z"/><path class="cls-11" d="M104.55,534.49v-.94h0v-2.08h0v-1.59l0,0,0,0,0,0,0,0,0,0v0h0l0,0,0-.06a5.57,5.57,0,0,0-.53-.83l-.08-.13v-.1l0,0v0h-.6l-2.47-1.42H98.47l0,0h0l-3.49,2a1.13,1.13,0,0,1,1.2,0L98.58,530a2.92,2.92,0,0,1,.8.76,5.59,5.59,0,0,1,.53.83l.06.11h0a9.83,9.83,0,0,1,.67,1.81h0a12.41,12.41,0,0,1,.37,2.09h0c0,.36,0,.72,0,1.08l-.11,39.92a9.51,9.51,0,0,1-.1,1.37h0a6.25,6.25,0,0,1-.27,1.13h0a2.44,2.44,0,0,1-.94,1.35l3.49-2a1.46,1.46,0,0,0,.29-.22l0,0,0,0,0-.05,0,0,0,0,0,0,0,0h0l0,0,0,0,0,0,0,0,0,0,0,0,0,0,0,0,0,0,0,0,0,0,0,0v-1.58h0v-1.36h0l.11-39.92v-.14Z"/><path class="cls-12" d="M116,541.11v-1h0V538h0v-1.62l0,0,0,0,0,0,0,0,0,0,0,0,0-.06a5.53,5.53,0,0,0-.53-.83s-.05-.09-.08-.13V535l0,0h-.6L111,533.1h-1.14l0,0h0l-3.49,2a1.06,1.06,0,0,1,.57-.15h0a1.32,1.32,0,0,1,.63.19l2.47,1.42a2.4,2.4,0,0,1,.5.4h0a4,4,0,0,1,.3.37,5.57,5.57,0,0,1,.53.83,11.14,11.14,0,0,1,1.1,4h0c0,.36,0,.72,0,1.08l-.11,39.92a7.81,7.81,0,0,1-.37,2.5h0a3.48,3.48,0,0,1-.41.84h0a1.71,1.71,0,0,1-.53.51l3.49-2a1.44,1.44,0,0,0,.29-.22l0,0,0,0,0-.05,0,0,0,0,0,0,0,0h0l0,0,0,0,0,0,0,0,0,0,0,0,0,0,0,0,0,0,0,0,0,0,0,0v-.46h0v-2.48h0l.11-39.93v-.1Z"/><path class="cls-13" d="M127,547.48v-.94h0v-1.06h0v-1h0v-.94h0v-.68l0,0,0,0,0,0,0,0,0,0,0,0,0-.06a5.56,5.56,0,0,0-.53-.83s-.05-.09-.08-.13v-.12l0,0h-.6l-2.47-1.42H121l0,0h0l-3.49,2a1.06,1.06,0,0,1,.57-.15h0a1.32,1.32,0,0,1,.63.19l2.47,1.42a2.4,2.4,0,0,1,.5.4h0a4,4,0,0,1,.3.37,5.57,5.57,0,0,1,.53.83l.06.11h0a8.79,8.79,0,0,1,.37.85h0a11.59,11.59,0,0,1,.53,2h0c.06.35.11.71.14,1.07h0c0,.36,0,.72,0,1.08l-.11,39.92a6.12,6.12,0,0,1-.78,3.34h0a1.71,1.71,0,0,1-.53.51l3.49-2a1.44,1.44,0,0,0,.29-.22l0,0,0,0,0-.05,0,0,0,0,0,0,0,0h0l0,0,0,0,0,0,0,0,0,0,0,0,0,0,0,0,0,0,0,0,0,0,0,0v-1.58h0v-1.36h0l.11-39.92v-.14Z"/><path class="cls-14" d="M138.2,554v-1h0v-1.06h0v-2h0v-.68l0,0,0,0,0,0,0,0,0,0,0,0,0-.06a5.56,5.56,0,0,0-.53-.83s-.05-.09-.08-.13v-.1l0,0v0h-.6L133.27,546h-1.14l0,0h0l-3.49,2a1.07,1.07,0,0,1,.57-.15h0a1.33,1.33,0,0,1,.63.19l2.46,1.42a2.92,2.92,0,0,1,.8.76,5.56,5.56,0,0,1,.53.83l.06.11h0a8.73,8.73,0,0,1,.37.85h0a12,12,0,0,1,.67,3h0c0,.36,0,.72,0,1.08L134.59,596a6.12,6.12,0,0,1-.78,3.34h0a1.71,1.71,0,0,1-.53.51l3.49-2a1.44,1.44,0,0,0,.29-.22l0,0,0,0,0-.05,0,0,0,0,0,0,0,0h0l0,0,0,0,0,0,0,0,0,0,0,0,0,0,0,0,0,0,0,0,0,0,0,0V594h0l.11-39.92V554Z"/><path class="cls-15" d="M149.29,560.36v-1h0v-3h0v-.67l0,0,0,0,0,0,0,0v0h0l0,0,0-.06a5.57,5.57,0,0,0-.53-.83s-.05-.09-.08-.13v-.14h-.6l-2.47-1.42h-1.14l0,0h0l-3.49,2a1.06,1.06,0,0,1,.57-.15h0a1.33,1.33,0,0,1,.63.19l2.47,1.42a2.92,2.92,0,0,1,.8.76,5.57,5.57,0,0,1,.53.83l.06.11h0a11.33,11.33,0,0,1,1,3.9h0c0,.36,0,.72,0,1.08l-.11,39.92a6.12,6.12,0,0,1-.78,3.34h0a1.71,1.71,0,0,1-.53.51l3.49-2a1.44,1.44,0,0,0,.29-.22l0,0,0,0,0-.05,0,0,0,0,0,0,0,0h0l0,0,0,0,0,0,0,0,0,0,0,0,0,0,0,0,0,0,0,0,0,0,0,0v-2.95h0l.11-39.93v-.1Z"/><path class="cls-16" d="M160.69,566.91V566h0v-1.06h0v-1h0v-1.59l0,0,0,0,0,0,0,0,0,0v0h0l0,0,0-.06a5.57,5.57,0,0,0-.53-.83s-.05-.09-.08-.13v-.12l0,0h-.6l-2.47-1.42h-1.14l0,0h0l-3.49,2a1.13,1.13,0,0,1,1.2,0l2.47,1.42a2.4,2.4,0,0,1,.5.4h0a4,4,0,0,1,.3.37,5.56,5.56,0,0,1,.53.83,8.46,8.46,0,0,1,.43,1h0c.11.3.21.62.3,1h0c.09.33.16.67.23,1h0c.06.35.11.7.14,1.06h0c0,.36,0,.72,0,1.08L157.09,609a9.51,9.51,0,0,1-.1,1.37h0a4.72,4.72,0,0,1-.68,2h0a1.71,1.71,0,0,1-.53.51l3.49-2a1.46,1.46,0,0,0,.29-.22l0,0,0,0,0-.05,0,0,0,0,0,0,0,0h0l0,0,0,0,0,0,0,0,0,0,0,0,0,0,0,0,0,0,0,0,0,0,0,0v-.46h0v-1.12h0V607h0L160.7,567v-.14Z"/><path class="cls-17" d="M171.79,573.31v-.94h0V571.3h0v-1h0v-.94h0v-.67l0,0,0,0,0,0,0,0v0h0l0,0,0-.06a5.54,5.54,0,0,0-.53-.83s-.05-.09-.08-.13v-.14h-.6l-2.47-1.42h-1.14l0,0h0l-3.49,2a1.06,1.06,0,0,1,.57-.15h0a1.32,1.32,0,0,1,.63.19l2.47,1.42a2.92,2.92,0,0,1,.8.76,5.59,5.59,0,0,1,.53.83l.06.11h0a8.75,8.75,0,0,1,.37.85h0a11.59,11.59,0,0,1,.53,2h0c.06.35.11.7.14,1.06h0c0,.36,0,.72,0,1.08l-.11,39.92a9.51,9.51,0,0,1-.1,1.37h0a6.25,6.25,0,0,1-.27,1.13h0a3.48,3.48,0,0,1-.41.84h0a1.71,1.71,0,0,1-.53.51h0l3.49-2a1.45,1.45,0,0,0,.29-.22l0,0,0,0,0-.05,0,0,0,0,0,0,0,0,0,0,0,0,0,0,0,0,0,0,0,0,0,0,0,0,0,0,0,0,0,0,0,0v-.46h0v-1.12h0v-1.36h0l.11-39.93v-.14Z"/><path class="cls-18" d="M183.19,579.93v-1h0v-2.08h0v-1.59l0,0,0,0,0,0,0,0,0,0v0h0l0,0,0-.06a5.57,5.57,0,0,0-.53-.83s-.05-.09-.08-.13v-.12l0,0h-.6l-2.47-1.42h-1.14l0,0h0l-3.49,2a1.13,1.13,0,0,1,1.2,0l2.47,1.42a2.92,2.92,0,0,1,.8.76,5.58,5.58,0,0,1,.53.83l.06.11h0a9.83,9.83,0,0,1,.67,1.81h0a12.4,12.4,0,0,1,.37,2.09h0c0,.36,0,.72,0,1.08L179.59,622a9.51,9.51,0,0,1-.1,1.37h0a6.26,6.26,0,0,1-.27,1.13h0a3.48,3.48,0,0,1-.41.84h0a1.71,1.71,0,0,1-.53.51l3.49-2a1.45,1.45,0,0,0,.29-.22l0,0,0,0,0-.05,0,0,0,0,0,0,0,0h0l0,0,0,0,0,0,0,0,0,0,0,0,0,0,0,0,0,0,0,0,0,0,0,0v-.46h0V620h0l.11-39.92v-.1Z"/><path class="cls-19" d="M194.29,586.38v-1h0v-2.09h0v-.95h0v-.61l0,0,0,0,0,0,0,0,0,0,0,0,0,0,0,0a6.27,6.27,0,0,0-.36-.62l-.11-.15c-.06-.08-.11-.17-.18-.24v-.09l0,0,0,0v0h-.59l-2.47-1.42h-1.14l0,0h0l-3.49,2a1.06,1.06,0,0,1,.57-.15h0a1.32,1.32,0,0,1,.63.19l2.47,1.42a3,3,0,0,1,.89.88l.11.15a6.34,6.34,0,0,1,.39.67h0a8.8,8.8,0,0,1,.37.85h0c.11.3.21.62.3,1h0c.09.33.17.67.23,1h0a12.11,12.11,0,0,1,.19,2.15l-.11,39.92a7.76,7.76,0,0,1-.37,2.5h0a3.48,3.48,0,0,1-.41.84h0a1.72,1.72,0,0,1-.53.51l3.49-2a1.45,1.45,0,0,0,.29-.23l0,0,0,0,0-.05,0,0,0,0,0,0,0,0,0,0,0,0,0,0,0,0,0,0,0,0,0,0,0,0,0,0,0,0,0,0,0,0,0,0v-.42h0v-2.47h0l.11-39.92v-.06Z"/><path class="cls-20" d="M490.8,344.44c14.08,8.13,14.16,21.44.16,29.58L277.56,498c-14,8.14-37,8.14-51.06,0L11.7,374c-14.09-8.14-14.17-21.45-.17-29.58l213.39-124c14-8.14,37-8.14,51.07,0Z"/><path class="cls-21" d="M501.24,361.32h0a13,13,0,0,1-.49,2h0a14.24,14.24,0,0,1-.82,1.94h0a16.15,16.15,0,0,1-1.14,1.89h0a18.79,18.79,0,0,1-1.44,1.8l-.07.07a22,22,0,0,1-1.6,1.58l-.22.2q-.92.8-2,1.57l-.13.1c-.75.53-1.54,1-2.39,1.54L277.56,498q-1.31.76-2.72,1.43h0a43.72,43.72,0,0,1-6,2.29h0q-1.57.48-3.2.86h0q-1.63.38-3.3.67h0q-1.67.29-3.38.48h0q-1.71.19-3.44.29h0q-1.73.1-3.46.1h0q-1.73,0-3.46-.09h0q-1.73-.09-3.44-.29h0q-1.71-.19-3.38-.47h0q-1.67-.28-3.29-.66h0q-1.6-.37-3.14-.84l-.12,0c-.68-.21-1.34-.45-2-.68-.83-.29-1.64-.61-2.43-.94-.35-.15-.71-.29-1-.44-1.1-.5-2.18-1-3.2-1.62L11.7,374c-7.09-4.09-10.63-9.5-10.62-14.9l-.23,80.8c0,5.4,3.53,10.8,10.62,14.9l214.8,124c1,.59,2.09,1.12,3.2,1.62.34.16.7.3,1,.44.79.34,1.6.65,2.43.94.21.07.4.17.61.24l.89.29.5.15.12,0,.28.09.64.18.51.14.51.13.51.13.52.13.17,0h0l.23.05.37.08.37.08.37.08.37.08.38.07.38.07.33.06.3.05.19,0h0l.1,0,.3.05.3,0,.3,0,.3,0,.3,0,.31,0,.27,0,.26,0,.26,0,.26,0,.26,0,.14,0H245l.26,0,.26,0,.26,0,.26,0,.26,0,.23,0,.23,0,.23,0,.23,0,.23,0,.23,0h9l.19,0,.19,0,.19,0,.19,0,.19,0,.19,0,.19,0,.19,0,.19,0,.19,0h.19l.19,0,.19,0,.19,0,.19,0,.19,0,.19,0,.19,0,.19,0,.19,0,.19,0,.19,0,.19,0,.19,0,.19,0,.19,0,.19,0,.19,0,.1,0h.09l.19,0,.19,0,.19,0,.19,0,.19,0,.19,0,.19,0,.19,0,.19,0,.19,0,.19,0,.19,0,.19,0,.19,0,.19,0,.19,0,.19,0h0l.16,0,.2,0,.2,0,.19,0,.19,0,.19,0,.19-.05L267,583l.19-.05.19-.05.19-.05.19-.05.19-.05.2-.06.21-.06.21-.06.1,0h0l.1,0,.21-.06.2-.06.2-.07.2-.07.2-.07.2-.07.2-.07.2-.07.21-.07.23-.08.23-.08.22-.08.22-.08.22-.08h0l.22-.08.22-.09.22-.09.22-.09.22-.09.24-.1.26-.11.26-.11.26-.11.26-.12.25-.12.25-.12h0l.22-.11.25-.12.3-.15.32-.16.32-.17.32-.17.31-.17L277,579l.31-.18.07,0,213.39-124,.36-.21.45-.27L492,454l.43-.28.54-.37.17-.12.13-.1.57-.42c.5-.38,1-.76,1.41-1.15l.22-.2c.29-.26.59-.53.86-.79l.5-.52.24-.27.07-.08.16-.18.32-.37.24-.29.23-.3.22-.3.22-.3,0-.06h0l.12-.18.14-.21.14-.22.13-.22.13-.22.13-.22.12-.22.1-.19.09-.17,0,0h0l.06-.12.09-.18.08-.18.08-.18.08-.18.08-.18.07-.18.06-.16.06-.15.06-.15.05-.15.05-.15h0l0-.14,0-.15,0-.15,0-.15,0-.15,0-.15,0-.14,0-.14,0-.14,0-.14,0-.14,0-.14,0-.14,0-.13h0l0-.14,0-.14,0-.14,0-.13v-1.12s0-.08,0-.13,0-.08,0-.13v-.08l.23-80.8A12.38,12.38,0,0,1,501.24,361.32Z"/><path class="cls-22" d="M490.8,255.23c14.08,8.13,14.16,21.44.16,29.58l-213.39,124c-14,8.14-37,8.14-51.06,0l-214.8-124c-14.09-8.14-14.17-21.45-.17-29.58l213.39-124c14-8.14,37-8.14,51.07,0Z"/><path class="cls-23" d="M501.24,272.11h0a13,13,0,0,1-.49,2h0a14.24,14.24,0,0,1-.82,1.94h0a16.15,16.15,0,0,1-1.14,1.89h0a18.79,18.79,0,0,1-1.44,1.8l-.07.07a22,22,0,0,1-1.6,1.58l-.22.2q-.92.8-2,1.57l-.13.1c-.75.53-1.54,1-2.39,1.54l-213.39,124q-1.31.76-2.72,1.43h0a43.72,43.72,0,0,1-6,2.29h0q-1.57.48-3.2.86h0q-1.63.38-3.3.67h0q-1.67.29-3.38.48h0q-1.71.19-3.44.29h0q-1.73.1-3.46.1h0q-1.73,0-3.46-.09h0q-1.73-.09-3.44-.29h0q-1.71-.19-3.38-.47h0q-1.67-.28-3.29-.66h0q-1.6-.37-3.14-.84l-.12,0c-.68-.21-1.34-.45-2-.68-.83-.29-1.64-.61-2.43-.94-.35-.15-.71-.29-1-.44-1.1-.5-2.18-1-3.2-1.62l-214.8-124c-7.09-4.09-10.63-9.5-10.62-14.9l-.23,80.8c0,5.4,3.53,10.8,10.62,14.9l214.8,124c1,.59,2.09,1.12,3.2,1.62.34.16.7.3,1,.44.79.34,1.6.65,2.43.94.21.07.4.17.61.24l.89.29.5.15.12,0,.28.09.64.18.51.14.51.13.51.13.52.13.17,0h0l.23.05.37.08.37.08.37.08.37.08.38.07.38.07.33.06.3.05.19,0h0l.1,0,.3.05.3,0,.3,0,.3,0,.3,0,.31,0,.27,0,.26,0,.26,0,.26,0,.26,0,.14,0H245l.26,0,.26,0,.26,0,.26,0,.26,0,.23,0,.23,0,.23,0,.23,0,.23,0,.23,0h9l.19,0,.19,0,.19,0,.19,0,.19,0,.19,0,.19,0,.19,0,.19,0,.19,0h.19l.19,0,.19,0,.19,0,.19,0,.19,0,.19,0,.19,0,.19,0,.19,0,.19,0,.19,0,.19,0,.19,0,.19,0,.19,0,.19,0,.19,0,.1,0h.09l.19,0,.19,0,.19,0,.19,0,.19,0,.19,0,.19,0,.19,0,.19,0,.19,0,.19,0,.19,0,.19,0,.19,0,.19,0,.19,0,.19,0h0l.16,0,.2,0,.2,0,.19,0,.19,0,.19,0,.19-.05.19-.05.19-.05.19-.05.19-.05.19-.05.19-.05.2-.06.21-.06.21-.06.1,0h0l.1,0,.21-.06.2-.06.2-.07.2-.07.2-.07.2-.07.2-.07.2-.07.21-.07.23-.08.23-.08.22-.08.22-.08.22-.08h0l.22-.08.22-.09.22-.09.22-.09.22-.09.24-.1.26-.11.26-.11.26-.11.26-.12.25-.12.25-.12h0l.22-.11.25-.12.3-.15.32-.16.32-.17.32-.17.31-.17.31-.17.31-.18.07,0,213.39-124,.36-.21.45-.27.44-.28.43-.28.54-.37.17-.12.13-.1.57-.42c.5-.38,1-.76,1.41-1.15l.22-.2c.29-.26.59-.53.86-.79l.5-.52.24-.27.07-.08.16-.18.32-.37.24-.29.23-.3.22-.3.22-.3,0-.06h0l.12-.18.14-.21.14-.22.13-.22.13-.22.13-.22.12-.22.1-.19.09-.17,0,0h0l.06-.12.09-.18.08-.18.08-.18.08-.18.08-.18.07-.18.06-.16.06-.15.06-.15.05-.15.05-.15h0l0-.14,0-.15,0-.15,0-.15,0-.15,0-.15,0-.14,0-.14,0-.14,0-.14,0-.14,0-.14,0-.14,0-.13h0l0-.14,0-.14,0-.14,0-.13v-1.12s0-.08,0-.13,0-.08,0-.13v-.08l.23-80.8A12.38,12.38,0,0,1,501.24,272.11Z"/><path class="cls-24" d="M490.8,167.67c14.08,8.13,14.16,21.44.16,29.58l-213.4,124c-14,8.13-37,8.13-51.05,0l-214.8-124c-14.09-8.14-14.17-21.45-.18-29.58l213.4-124c14-8.14,37-8.14,51.07,0Z"/><path class="cls-25" d="M500.75,186.53h0a14.22,14.22,0,0,1-.82,1.95h0a16.18,16.18,0,0,1-1.14,1.89h0a18.78,18.78,0,0,1-1.44,1.8l-.07.07a22.13,22.13,0,0,1-1.6,1.58l-.22.2q-.92.8-2,1.57l-.13.1c-.75.53-1.54,1-2.39,1.54l-213.4,124q-1.31.76-2.72,1.43h0q-1.41.67-2.9,1.24h0q-1.49.57-3.06,1h0q-1.57.48-3.2.86h0A57.28,57.28,0,0,1,259,327h0q-1.71.19-3.43.29h0q-1.73.1-3.46.1h0q-1.73,0-3.46-.1h0q-1.73-.1-3.44-.29h0q-1.7-.19-3.38-.47h0q-1.67-.28-3.29-.66h0q-1.6-.37-3.14-.84l-.12,0c-.68-.21-1.34-.45-2-.68-.83-.29-1.64-.61-2.43-.94-.35-.15-.71-.29-1-.44-1.1-.5-2.18-1-3.2-1.62l-214.8-124c-7.09-4.09-10.63-9.5-10.62-14.9l-.23,80.8c0,5.4,3.53,10.8,10.62,14.9l214.8,124c1,.59,2.09,1.12,3.2,1.62.34.16.7.3,1,.44.79.34,1.6.65,2.43.95.21.07.4.17.61.24l.89.29.5.15.12,0,.28.09.64.18.51.14.51.14.51.13.52.13.17,0h0l.23.05.37.08.37.08.37.08.37.08.38.07.38.07.33.06.3.05.19,0h0l.11,0,.3.05.3,0,.3,0,.3,0,.3,0,.31,0,.27,0,.26,0,.26,0,.26,0,.26,0,.14,0H245l.26,0,.26,0,.26,0,.26,0,.26,0,.23,0,.23,0,.23,0,.23,0,.23,0,.23,0h9l.19,0,.19,0,.19,0,.19,0,.19,0,.19,0,.19,0,.19,0,.19,0,.19,0h.19l.19,0,.19,0,.19,0,.19,0,.19,0,.19,0,.19,0,.19,0,.19,0,.19,0,.19,0,.19,0,.19,0,.19,0,.19,0,.19,0,.19,0,.19,0,.19,0,.19,0,.19,0,.19,0,.19,0,.19,0,.19,0,.19,0,.19,0,.19,0,.19,0,.19,0,.19,0,.19,0,.19,0,.19,0,.19,0h0l.17,0,.2,0,.2,0,.19,0,.19,0,.19,0,.19-.05.19-.05.19-.05.19-.05.19-.05.19-.05.19-.05.2-.06.21-.06.21-.06.09,0h0l.11,0,.21-.06.2-.06.2-.06.2-.07.2-.07.2-.07.2-.07.2-.07.21-.07.23-.08L271,405l.22-.08.22-.08.22-.08.22-.09.22-.09.22-.09.22-.09.22-.09.24-.1.26-.11.26-.11.26-.11.26-.12.25-.12.25-.12h0l.23-.11.25-.12.3-.15.32-.16.32-.17.32-.17.31-.17.31-.17.31-.18.07,0,213.4-124,.36-.21.45-.27.44-.28.43-.28.54-.37.17-.12.13-.1.57-.42c.5-.38,1-.76,1.41-1.15l.22-.2c.29-.26.59-.53.86-.8l.5-.52.24-.27.07-.07.16-.18.32-.37.24-.29.23-.3.22-.3.22-.3,0-.06h0l.12-.18.14-.21.14-.22.13-.22.13-.22.13-.22.12-.22.1-.19.09-.17,0,0h0l.06-.12.09-.18.08-.18.08-.18.08-.18.08-.18.07-.18.06-.16.06-.15.06-.15.05-.15.05-.15h0l0-.14,0-.15,0-.15,0-.15,0-.15,0-.15,0-.14,0-.14,0-.14,0-.14,0-.14,0-.14,0-.14,0-.13h0l0-.14,0-.14,0-.14,0-.13v-1.25s0-.08,0-.13v-.08l.23-80.8A12.63,12.63,0,0,1,500.75,186.53Z"/><path class="cls-26" d="M261.38,122.34s.05-.09.07-.14l-.07,25.31h0a2.59,2.59,0,0,1,.14-.82h0s.05-.09.07-.14l0,5.48-.06,19.83a2.59,2.59,0,0,1,.14-.82h0s.05-.09.07-.14l-.07,25.32a2.63,2.63,0,0,1,.21-1l-.05,18.27,0,7h0a2.58,2.58,0,0,1,.14-.81h0a3.11,3.11,0,0,1,.41-.79h0a4.21,4.21,0,0,1,.67-.74h0a6,6,0,0,1,.94-.67,8,8,0,0,1,1.16-.55h0a11.59,11.59,0,0,1,4.09-.71h0a12.74,12.74,0,0,1,1.42.08h0a11.8,11.8,0,0,1,1.38.24h0a10.1,10.1,0,0,1,1.29.39h0a8.17,8.17,0,0,1,1.16.55,3.72,3.72,0,0,1,2.2,3.07l.08-26.93a2.62,2.62,0,0,0-.2-1l.07-23.4a2.62,2.62,0,0,0-.2-1l.07-23.4a2.62,2.62,0,0,0-.2-1l.07-23.4a2.62,2.62,0,0,0-.2-1l.07-23.4A3.72,3.72,0,0,0,274,93.2a8.06,8.06,0,0,0-1.05-.51l-.11,0h0l-.07,0-.18-.07-.1,0-.1,0-.1,0-.1,0-.1,0-.07,0-.07,0-.07,0-.07,0-.07,0-.07,0-.07,0h-6.65l0,0,0,0,0,0,0,0,0,0h0l0,0,0,0,0,0,0,0-.05,0-.06,0-.06,0-.06,0-.06,0-.06,0-.06,0-.06,0-.07,0-.08,0-.08,0-.08,0-.08,0-.08,0h0l-.13.08-.15.09a5.82,5.82,0,0,0-.5.36h0l-.13.11,0,0h0l-.09.08-.09.09-.06.06-.06.06-.05.06-.05.06,0,.05,0,0,0,0,0,0,0,0,0,0,0,0,0,0,0,0,0,0,0,0,0,0,0,0,0,0,0,0,0,0,0,0,0,0v.46h0V96h0v.1h0v.05h0L261.27,116l0,7.1h0a2.59,2.59,0,0,1,.14-.82Z"/><path class="cls-27" d="M219.33,122.34s.05-.09.07-.14l-.07,25.31h0a2.58,2.58,0,0,1,.14-.82h0s.05-.09.07-.14l0,5.43-.06,19.89a2.59,2.59,0,0,1,.14-.82h0s.05-.09.07-.14l-.05,18.21,0,7.1h0a2.59,2.59,0,0,1,.14-.82h0s.05-.09.07-.14l-.07,25.31h0a2.59,2.59,0,0,1,.14-.82h0a3.11,3.11,0,0,1,.41-.79h0a4.21,4.21,0,0,1,.67-.74h0a6,6,0,0,1,.94-.67,8.07,8.07,0,0,1,1.16-.55h0a11.59,11.59,0,0,1,4.09-.71h0a12.33,12.33,0,0,1,2.8.32h0a10.1,10.1,0,0,1,1.29.39h0a8.15,8.15,0,0,1,1.16.55,3.72,3.72,0,0,1,2.2,3.07l.08-26.93a2.62,2.62,0,0,0-.2-1l.07-23.4a2.62,2.62,0,0,0-.2-1l.07-23.4a2.62,2.62,0,0,0-.2-1l.07-23.4a2.62,2.62,0,0,0-.2-1l.07-23.4a3.72,3.72,0,0,0-2.2-3.07,8,8,0,0,0-1.05-.51l-.11,0h0l-.07,0-.18-.07-.1,0-.1,0-.1,0-.1,0-.1,0-.07,0-.07,0-.07,0-.07,0-.07,0-.07,0-.07,0h-6.65l0,0,0,0,0,0,0,0,0,0h0l0,0,0,0,0,0,0,0-.05,0-.06,0-.06,0-.06,0-.06,0-.06,0-.06,0-.06,0-.07,0-.08,0-.08,0-.08,0-.08,0-.08,0h0l-.13.08-.15.09a5.9,5.9,0,0,0-.5.36h0l-.13.11,0,0h0l-.09.08-.09.09-.06.06-.06.06-.05.06-.05.06,0,.05,0,0,0,0,0,0,0,0,0,0,0,0,0,0,0,0,0,0,0,0,0,0,0,0,0,0,0,0,0,0,0,0,0,0v.46h0v.52h0V96h0v.1h0v.05l-.08,26.93h0a2.59,2.59,0,0,1,.14-.82Z"/><path class="cls-28" d="M282.48,134.52h0s.05-.09.07-.14l-.07,25.32a2.59,2.59,0,0,1,.14-.82h0s.05-.09.07-.14L282.64,177l0,7.08h0a2.63,2.63,0,0,1,.21-1l-.07,25.31h0a2.58,2.58,0,0,1,.14-.82h0a3.11,3.11,0,0,1,.41-.79h0a4.2,4.2,0,0,1,.67-.74h0a6,6,0,0,1,.94-.67,8,8,0,0,1,1.16-.55h0a10.06,10.06,0,0,1,1.29-.39h0a11.71,11.71,0,0,1,1.38-.24h0a12.75,12.75,0,0,1,1.42-.08h0a12.76,12.76,0,0,1,1.42.08h0a11.8,11.8,0,0,1,1.38.24h0a10.14,10.14,0,0,1,1.29.39h0a8.13,8.13,0,0,1,1.16.55,3.72,3.72,0,0,1,2.2,3.07l.08-26.93a2.62,2.62,0,0,0-.2-1l.07-23.4a2.62,2.62,0,0,0-.2-1l.07-23.4a2.62,2.62,0,0,0-.2-1l.07-23.4a3.72,3.72,0,0,0-2.2-3.07,8.06,8.06,0,0,0-1.05-.51l-.11,0h0l-.07,0-.18-.07-.1,0-.1,0-.1,0-.1,0-.1,0-.07,0-.07,0-.07,0-.07,0-.07,0-.07,0-.07,0H286l0,0,0,0,0,0,0,0,0,0h0l0,0,0,0,0,0,0,0-.05,0-.06,0-.06,0-.06,0-.06,0-.06,0-.06,0-.06,0-.07,0-.08,0-.08,0-.08,0-.08,0-.08,0h0l-.13.08-.15.09a5.9,5.9,0,0,0-.5.36h0l-.13.11,0,0h0l-.09.08-.09.09-.06.06-.06.06-.05.06-.05.06,0,.05,0,0,0,0,0,0,0,0,0,0,0,0,0,0,0,0,0,0,0,0,0,0,0,0,0,0,0,0,0,0,0,0,0,0v.46h0v.52h0v.1h0v.1h0v.05l0,7.09-.06,19.85A2.59,2.59,0,0,1,282.48,134.52Z"/><path class="cls-29" d="M240.43,134.52h0s.05-.09.07-.14l-.05,18.21,0,7.1h0a2.59,2.59,0,0,1,.14-.82h0s.05-.09.07-.14L240.56,184h0a2.63,2.63,0,0,1,.21-1l0,5.46-.06,19.85a2.59,2.59,0,0,1,.14-.82h0a3.11,3.11,0,0,1,.4-.79h0a4.21,4.21,0,0,1,.67-.74h0a6,6,0,0,1,.94-.67,8.07,8.07,0,0,1,1.16-.55h0a10.9,10.9,0,0,1,2.67-.63h0a12.75,12.75,0,0,1,1.42-.08h0a12.76,12.76,0,0,1,1.42.08h0a11.8,11.8,0,0,1,1.38.24h0a10.11,10.11,0,0,1,1.29.39h0a8.15,8.15,0,0,1,1.16.55,3.72,3.72,0,0,1,2.2,3.07l.08-26.93a2.63,2.63,0,0,0-.2-1l.07-23.4a2.62,2.62,0,0,0-.2-1l.07-23.4a2.62,2.62,0,0,0-.2-1l.07-23.4a3.72,3.72,0,0,0-2.2-3.07,8,8,0,0,0-1.05-.51l-.11,0h0l-.07,0-.18-.07-.1,0-.1,0-.1,0-.1,0-.1,0-.07,0-.07,0-.07,0-.07,0-.07,0-.07,0-.07,0-.06,0H244l0,0,0,0,0,0,0,0,0,0h0l0,0,0,0,0,0,0,0-.05,0-.06,0-.06,0-.06,0-.06,0-.06,0-.06,0-.06,0-.07,0-.08,0-.08,0-.08,0-.08,0-.08,0h0l-.13.08-.15.09a5.84,5.84,0,0,0-.5.36h0l-.13.11,0,0h0l-.09.08-.09.09-.06.06-.06.06-.05.06-.05.06,0,.05,0,0,0,0,0,0,0,0,0,0,0,0,0,0,0,0,0,0,0,0,0,0,0,0,0,0,0,0,0,0,0,0,0,0v.46h0v.63h0v.1h0v.05l0,7.09-.06,19.85A2.58,2.58,0,0,1,240.43,134.52Z"/><path class="cls-30" d="M198.37,134.52s.05-.09.07-.14l-.07,25.31h0a2.59,2.59,0,0,1,.14-.82h0a3.6,3.6,0,0,1,1.08-1.53h0c.07-.06.18-.12.26-.18h0v.63h0l-.06,19.88v1.66h0l-.06.06-.05.06-.05.06,0,.05,0,0,0,0,0,0,0,0,0,0,0,0,0,0,0,0,0,0,0,0,0,0,0,0,0,0,0,0,0,0,0,0,0,0v.46h0v.79h0l0,7.1-.06,19.85a2.59,2.59,0,0,1,.14-.82h0a3.11,3.11,0,0,1,.41-.79h0a4.19,4.19,0,0,1,.67-.74h0a5.94,5.94,0,0,1,.94-.67,8,8,0,0,1,1.16-.55h0a11.59,11.59,0,0,1,4.09-.71h0a12.74,12.74,0,0,1,1.42.08h0a11.8,11.8,0,0,1,1.38.24h0a10.13,10.13,0,0,1,1.29.39h0a8.13,8.13,0,0,1,1.16.55,3.72,3.72,0,0,1,2.2,3.07l.07-25.77a3.06,3.06,0,0,1,1,2.09l.08-26.93a3.28,3.28,0,0,0-1.38-2.49l.06-22.55a2.62,2.62,0,0,0-.2-1l.07-23.4a3.72,3.72,0,0,0-2.2-3.07,8,8,0,0,0-1.05-.51l-.11,0h0l-.07,0-.18-.07-.1,0-.1,0-.1,0-.1,0-.1,0-.07,0-.07,0-.07,0-.07,0-.07,0-.07,0-.07,0-.06,0h-6.58l0,0,0,0,0,0,0,0,0,0h0l0,0,0,0,0,0,0,0-.05,0-.06,0-.06,0-.06,0-.06,0-.06,0-.06,0-.06,0-.07,0-.08,0-.08,0-.08,0-.08,0-.08,0h0l-.13.08-.15.09a5.93,5.93,0,0,0-.5.36h0l-.13.11,0,0h0l-.09.08-.09.09-.06.06-.06.06-.05.06-.05.06,0,.05,0,0,0,0,0,0,0,0,0,0,0,0,0,0,0,0,0,0,0,0,0,0,0,0,0,0,0,0,0,0,0,0,0,0v.46h0v.52h0v.1h0v.1h0v.05h0l-.06,19.82,0,7.1h0a2.59,2.59,0,0,1,.14-.82Z"/><path class="cls-31" d="M303.57,146.7s.05-.09.07-.14l-.07,25.31h0a2.58,2.58,0,0,1,.14-.82h0s.05-.09.07-.14l0,5.48-.06,19.83a2.59,2.59,0,0,1,.14-.82h0a3.6,3.6,0,0,1,1.08-1.53h0a6,6,0,0,1,.94-.67,8.07,8.07,0,0,1,1.16-.55h0a10,10,0,0,1,1.29-.39h0a11.75,11.75,0,0,1,1.38-.24h0a12.75,12.75,0,0,1,1.42-.08h0a12.76,12.76,0,0,1,1.42.08h0a11.88,11.88,0,0,1,1.38.24h0a10.14,10.14,0,0,1,1.29.39h0a8.15,8.15,0,0,1,1.16.55,3.72,3.72,0,0,1,2.2,3.07l.08-26.93a2.62,2.62,0,0,0-.2-1l.07-23.4a2.62,2.62,0,0,0-.2-1l.07-23.4a3.72,3.72,0,0,0-2.2-3.07,8.05,8.05,0,0,0-1.05-.51l-.11,0h0l-.07,0-.18-.07-.1,0-.1,0-.1,0-.1,0-.1,0-.07,0-.07,0-.07,0-.07,0-.07,0-.07,0-.07,0-.06,0h-6.58l0,0,0,0,0,0,0,0,0,0h0l0,0,0,0,0,0,0,0-.05,0-.06,0-.06,0-.06,0-.06,0-.06,0-.06,0-.06,0-.07,0-.08,0-.08,0-.08,0-.08,0-.08,0h0l-.13.08-.15.09a5.87,5.87,0,0,0-.5.36h0l-.13.11,0,0h0l-.09.08-.09.09-.06.06-.06.06-.05.06-.05.06,0,.05,0,0,0,0,0,0,0,0,0,0,0,0,0,0,0,0,0,0,0,0,0,0,0,0,0,0,0,0,0,0,0,0,0,0v.46h0v.76h0v0h0l-.06,19.83,0,7.1h0a2.59,2.59,0,0,1,.14-.82Z"/><path class="cls-32" d="M177.41,146.7h0a3.6,3.6,0,0,1,1.08-1.53h0c.07-.06.18-.12.26-.18h0v.43h0v.12h0v.05l0,7-.06,19.91a2.58,2.58,0,0,1,.14-.82h0s.05-.09.07-.14l-.07,25.32a2.58,2.58,0,0,1,.14-.82h0a3.61,3.61,0,0,1,1.08-1.53h0a6,6,0,0,1,.94-.67,9,9,0,0,1,2.45-.95h0a11.77,11.77,0,0,1,1.37-.24h0a12.78,12.78,0,0,1,1.42-.08h0a12.31,12.31,0,0,1,2.8.31h0a10.13,10.13,0,0,1,1.29.39h0a8.16,8.16,0,0,1,1.17.55,4.3,4.3,0,0,1,2.06,2.24,2.59,2.59,0,0,1,.14.83l.08-26.93a2.63,2.63,0,0,0-.2-1l.07-23.4a3.28,3.28,0,0,0-1.38-2.49l.06-22.55a3.72,3.72,0,0,0-2.2-3.07,8,8,0,0,0-1.05-.51l-.11,0h0l-.07,0-.18-.07-.1,0-.1,0-.1,0-.1,0-.1,0-.07,0-.07,0-.07,0-.07,0-.07,0-.07,0-.07,0H181l0,0,0,0,0,0,0,0,0,0h0l0,0,0,0,0,0,0,0-.05,0-.06,0-.06,0-.06,0-.06,0-.06,0-.06,0-.06,0-.07,0-.08,0-.08,0-.08,0-.08,0-.08,0h0l-.13.08-.15.09a5.88,5.88,0,0,0-.5.36h0l-.13.11,0,0h0l-.09.08-.09.09-.06.06-.06.06-.05.06-.05.06,0,.05,0,0,0,0,0,0,0,0,0,0,0,0,0,0,0,0,0,0,0,0,0,0,0,0,0,0,0,0,0,0,0,0,0,0v1h0v.09h0v.1h0v.05l0,7.11-.06,19.83A2.59,2.59,0,0,1,177.41,146.7Z"/><path class="cls-33" d="M324.67,158.88h0s.05-.09.07-.14l-.07,25.32a2.58,2.58,0,0,1,.14-.82h0a3.6,3.6,0,0,1,1.08-1.53h0a6,6,0,0,1,.94-.67,9.9,9.9,0,0,1,3.83-1.18h0a12.1,12.1,0,0,1,5.51.63h0a8.13,8.13,0,0,1,1.16.55,3.72,3.72,0,0,1,2.2,3.07l.08-26.93a2.62,2.62,0,0,0-.2-1l.07-23.4a3.72,3.72,0,0,0-2.2-3.07,8,8,0,0,0-1.05-.51l-.11,0h0l-.07,0-.18-.07-.1,0-.1,0-.1,0-.1,0-.1,0-.07,0-.07,0-.07,0-.07,0-.07,0-.07,0-.07,0-.06,0h-6.58l0,0,0,0,0,0,0,0,0,0h0l0,0,0,0,0,0,0,0-.05,0-.06,0-.06,0-.06,0-.06,0-.06,0-.06,0-.06,0-.07,0-.08,0-.08,0-.08,0-.08,0-.08,0h0l-.13.08-.15.09a5.85,5.85,0,0,0-.5.36h0l-.13.11,0,0h0l-.09.08-.09.09-.06.06-.06.06-.05.06-.05.06,0,.05,0,0,0,0,0,0,0,0,0,0,0,0,0,0,0,0,0,0,0,0,0,0,0,0,0,0,0,0,0,0,0,0,0,0v1.23h0v0l0,7.12-.06,19.83A2.58,2.58,0,0,1,324.67,158.88Z"/><path class="cls-34" d="M156.46,158.88a3.6,3.6,0,0,1,1.08-1.53h0c.07-.06.18-.12.26-.18h0v.63l-.08,26.93h0a2.58,2.58,0,0,1,.14-.82h0a3.11,3.11,0,0,1,.41-.79h0a4.22,4.22,0,0,1,.67-.74h0a6,6,0,0,1,.94-.67,8.08,8.08,0,0,1,1.16-.55h0a10,10,0,0,1,1.29-.39h0a11.68,11.68,0,0,1,1.37-.24h0a12.7,12.7,0,0,1,1.42-.08h0a12.72,12.72,0,0,1,1.42.08h0a11.79,11.79,0,0,1,1.38.24h0a10.11,10.11,0,0,1,1.29.39h0a8.18,8.18,0,0,1,1.16.55,3.72,3.72,0,0,1,2.19,3.07l.08-26.93a3.28,3.28,0,0,0-1.38-2.49l.06-22.55a3.72,3.72,0,0,0-2.2-3.07,8.08,8.08,0,0,0-1.05-.51l-.11,0h0l-.07,0-.18-.07-.1,0-.1,0-.1,0-.1,0-.1,0-.07,0-.07,0-.07,0-.07,0-.07,0-.07,0-.07,0H160l0,0,0,0,0,0,0,0,0,0h0l0,0,0,0,0,0,0,0-.05,0-.06,0-.06,0-.06,0-.06,0-.06,0-.06,0-.06,0-.07,0-.08,0-.08,0-.08,0-.08,0-.08,0h0l-.13.08-.15.09a5.85,5.85,0,0,0-.5.36h0l-.13.11,0,0h0l-.09.08-.09.09-.06.06-.06.06-.05.06-.05.06,0,.05,0,0,0,0,0,0,0,0,0,0,0,0,0,0h0l0,0,0,0,0,0,0,0,0,0,0,0,0,0,0,0,0,0,0,0v.46h0v.81l-.08,26.93h0a2.58,2.58,0,0,1,.14-.82Z"/><path class="cls-35" d="M500.45,147.05h0a12.88,12.88,0,0,1-.49,2h0a14.14,14.14,0,0,1-.81,1.93h0a16,16,0,0,1-1.13,1.89h0a18.61,18.61,0,0,1-1.45,1.82l0,0a22,22,0,0,1-1.73,1.71l-.08.07c-.58.51-1.22,1-1.89,1.5l-.5.35c-.67.46-1.35.92-2.1,1.35L276.49,283.87q-1.3.76-2.7,1.42h0q-1.4.66-2.88,1.23h0q-1.48.57-3,1h0a52.88,52.88,0,0,1-6.46,1.51h0a61,61,0,0,1-10.22.85h0a61.18,61.18,0,0,1-10.23-.85h0q-1.66-.28-3.28-.66h0q-1.61-.38-3.17-.85h0q-1.53-.46-3-1l-.12,0c-.7-.27-1.38-.57-2.05-.87-.3-.13-.62-.26-.91-.4-.89-.42-1.76-.87-2.6-1.35L10.62,159.66c-7-4.07-10.56-9.44-10.55-14.8L0,171.79c0,5.36,3.5,10.73,10.55,14.8L225.7,310.81c.83.48,1.7.93,2.6,1.35.3.14.61.26.91.4.51.23,1,.46,1.53.67l.52.2.12,0,.25.1.9.33.47.16.47.16.48.15.42.13h.06l.48.14.36.1.34.09.34.09.34.09.34.09.34.09.34.08.25.06h.08l.27.06.27.06.27.06.27.06.27.06.27.06.27.05.27.05.28.05.25,0,.23,0,.23,0h.05l.18,0,.23,0,.23,0,.24,0,.24,0,.24,0,.24,0,.24,0,.23,0,.21,0,.21,0,.21,0,.21,0,.21,0,.21,0h0l.16,0,.21,0,.21,0,.21,0,.21,0,.21,0,.21,0,.19,0,.19,0,.19,0h10.33l.17,0,.17,0,.17,0,.17,0,.17,0,.17,0,.17,0,.17,0,.17,0,.17,0,.17,0,.17,0,.17,0,.17,0,.17,0,.17,0,.17,0,.17,0,.17,0,.17,0,.17,0,.17,0,.17,0,.17,0,.17,0,.17,0,.17,0h.08l.1,0,.17,0,.17,0,.17,0,.18,0,.18,0,.18,0,.18,0,.18,0,.18,0,.18,0,.18,0,.18,0,.18,0,.18,0,.18,0,.18,0,.18,0,.16,0h0l.19,0,.19,0,.19,0,.19,0,.19,0,.19,0,.19,0,.19,0,.19-.05.19-.05.19-.05.19-.05.19-.05.2-.06.21-.06.21-.06.09,0h0l.11,0,.21-.06.21-.06.21-.07.2-.07.2-.07.2-.07.2-.07.2-.07.22-.08.24-.08.24-.09.24-.09.23-.09.13-.05h0l.09,0,.23-.09.23-.09.23-.09.23-.09.25-.1.29-.12.29-.12.29-.13.28-.13.28-.13.18-.09h0l.09,0,.28-.13.32-.16.4-.2.4-.21.39-.21.39-.21.38-.22.06,0L490.16,186.59l.62-.37.71-.45c.27-.17.51-.36.77-.53l.5-.35c.62-.45,1.21-.9,1.75-1.37l.14-.13.08-.07.36-.33.47-.44.27-.27.27-.27.26-.28.1-.11,0,0,.13-.14.23-.27L497,181l.16-.19.16-.2.15-.2.15-.2.14-.2.14-.2,0,0h0l.09-.14.11-.16.1-.16.1-.16.1-.16.1-.16.09-.16.09-.16.09-.16.09-.16.07-.14.07-.14,0-.05h0l0-.08.07-.14.07-.14.06-.14.06-.14.06-.14.06-.14.06-.14.06-.14.05-.13,0-.12,0-.12,0-.12,0-.12,0-.12v0h0l0-.09,0-.12,0-.12,0-.12,0-.12,0-.12,0-.12,0-.12,0-.11,0-.11,0-.11,0-.11,0-.11,0-.11,0-.11,0-.11,0-.11h0l0-.1,0-.11,0-.11,0-.11v-1.39s0-.07,0-.11v0l.08-26.93A12.28,12.28,0,0,1,500.45,147.05Z"/><path class="cls-36" d="M490.07,130.28c14,8.07,14.07,21.3.17,29.38L276.49,283.87c-13.9,8.07-36.73,8.08-50.72,0L10.62,159.66c-14-8.08-14.07-21.31-.18-29.38L224.2,6.06C238.1-2,260.93-2,274.92,6.06ZM306,172.37a11.57,11.57,0,0,0,10.51,0c2.89-1.68,2.89-4.4,0-6.09a11.59,11.59,0,0,0-10.51,0c-2.89,1.68-2.88,4.41,0,6.09m-10.89-67a11.59,11.59,0,0,0-10.51,0c-2.89,1.68-2.88,4.41,0,6.09a11.57,11.57,0,0,0,10.51,0c2.89-1.68,2.89-4.4,0-6.09m-21,12.18a11.59,11.59,0,0,0-10.51,0c-2.89,1.68-2.88,4.41,0,6.09a11.57,11.57,0,0,0,10.51,0c2.89-1.68,2.89-4.4,0-6.09m-21,12.18a11.59,11.59,0,0,0-10.51,0c-2.89,1.68-2.88,4.41,0,6.09a11.57,11.57,0,0,0,10.51,0c2.89-1.68,2.89-4.4,0-6.09M274,93.2a11.59,11.59,0,0,0-10.51,0c-2.89,1.68-2.88,4.41,0,6.09a11.57,11.57,0,0,0,10.51,0c2.89-1.68,2.89-4.4,0-6.09m-21,12.18a11.59,11.59,0,0,0-10.51,0c-2.89,1.68-2.88,4.41,0,6.09a11.57,11.57,0,0,0,10.51,0c2.89-1.68,2.89-4.4,0-6.09m-21,12.18a11.59,11.59,0,0,0-10.51,0c-2.89,1.68-2.88,4.41,0,6.09a11.57,11.57,0,0,0,10.51,0c2.89-1.68,2.89-4.4,0-6.09m-73.49,18.27a11.57,11.57,0,0,0,10.51,0c2.89-1.68,2.89-4.4,0-6.09a11.59,11.59,0,0,0-10.51,0c-2.89,1.68-2.88,4.41,0,6.09m21-12.18a11.57,11.57,0,0,0,10.51,0c2.89-1.68,2.89-4.4,0-6.09a11.59,11.59,0,0,0-10.51,0c-2.89,1.68-2.88,4.41,0,6.09m21-12.18a11.57,11.57,0,0,0,10.51,0c2.89-1.68,2.89-4.4,0-6.09a11.59,11.59,0,0,0-10.51,0c-2.89,1.68-2.88,4.41,0,6.09m21-12.18a11.57,11.57,0,0,0,10.51,0c2.89-1.68,2.89-4.4,0-6.09a11.59,11.59,0,0,0-10.51,0c-2.89,1.68-2.88,4.41,0,6.09m-10.34,30.45a11.59,11.59,0,0,0-10.51,0c-2.89,1.68-2.88,4.41,0,6.09a11.57,11.57,0,0,0,10.51,0c2.89-1.68,2.89-4.4,0-6.09m-51.21,31.13a11.59,11.59,0,0,0,10.51,0c2.89-1.68,2.88-4.41,0-6.09a11.57,11.57,0,0,0-10.51,0c-2.89,1.68-2.89,4.4,0,6.09m21-12.18a11.59,11.59,0,0,0,10.51,0c2.89-1.68,2.88-4.41,0-6.09a11.57,11.57,0,0,0-10.51,0c-2.89,1.68-2.89,4.4,0,6.09m51.35-6.77a11.59,11.59,0,0,0-10.51,0c-2.89,1.68-2.88,4.41,0,6.09a11.57,11.57,0,0,0,10.51,0c2.89-1.68,2.89-4.4,0-6.09m94.72,18.27a11.57,11.57,0,0,0,10.51,0c2.89-1.68,2.89-4.4,0-6.09a11.59,11.59,0,0,0-10.51,0c-2.89,1.68-2.88,4.41,0,6.09m-126,24.36a11.57,11.57,0,0,0,10.51,0c2.89-1.68,2.89-4.4,0-6.09a11.59,11.59,0,0,0-10.51,0c-2.89,1.68-2.88,4.41,0,6.09m21-12.18a11.57,11.57,0,0,0,10.51,0c2.89-1.68,2.89-4.4,0-6.09a11.59,11.59,0,0,0-10.51,0c-2.89,1.68-2.88,4.41,0,6.09m21-12.18a11.57,11.57,0,0,0,10.51,0c2.89-1.68,2.89-4.4,0-6.09a11.59,11.59,0,0,0-10.51,0c-2.89,1.68-2.88,4.41,0,6.09m21-12.18a11.57,11.57,0,0,0,10.51,0c2.89-1.68,2.89-4.4,0-6.09a11.59,11.59,0,0,0-10.51,0c-2.89,1.68-2.88,4.41,0,6.09m21-12.18a11.57,11.57,0,0,0,10.51,0c2.89-1.68,2.89-4.4,0-6.09a11.59,11.59,0,0,0-10.51,0c-2.89,1.68-2.88,4.41,0,6.09m21-12.18a11.57,11.57,0,0,0,10.51,0c2.89-1.68,2.89-4.4,0-6.09a11.59,11.59,0,0,0-10.51,0c-2.89,1.68-2.88,4.41,0,6.09M222,196.73a11.57,11.57,0,0,0,10.51,0c2.89-1.68,2.89-4.4,0-6.09a11.59,11.59,0,0,0-10.51,0c-2.89,1.68-2.88,4.41,0,6.09m21-12.18a11.57,11.57,0,0,0,10.51,0c2.89-1.68,2.89-4.4,0-6.09a11.59,11.59,0,0,0-10.51,0c-2.89,1.68-2.88,4.41,0,6.09m21-12.18a11.57,11.57,0,0,0,10.51,0c2.89-1.68,2.89-4.4,0-6.09a11.59,11.59,0,0,0-10.51,0c-2.89,1.68-2.88,4.41,0,6.09m21-12.18a11.57,11.57,0,0,0,10.51,0c2.89-1.68,2.89-4.4,0-6.09a11.59,11.59,0,0,0-10.51,0c-2.89,1.68-2.88,4.41,0,6.09m21-12.18a11.57,11.57,0,0,0,10.51,0c2.89-1.68,2.89-4.4,0-6.09a11.59,11.59,0,0,0-10.51,0c-2.89,1.68-2.88,4.41,0,6.09m21-12.18a11.57,11.57,0,0,0,10.51,0c2.89-1.68,2.89-4.4,0-6.09a11.59,11.59,0,0,0-10.51,0c-2.89,1.68-2.88,4.41,0,6.09m-62.74,60.9a11.57,11.57,0,0,0,10.51,0c2.89-1.68,2.89-4.4,0-6.09a11.59,11.59,0,0,0-10.51,0c-2.89,1.68-2.88,4.41,0,6.09m21-12.18a11.57,11.57,0,0,0,10.51,0c2.89-1.68,2.89-4.4,0-6.09a11.59,11.59,0,0,0-10.51,0c-2.89,1.68-2.88,4.41,0,6.09M181,173a11.59,11.59,0,0,0,10.51,0c2.89-1.68,2.88-4.41,0-6.09A11.57,11.57,0,0,0,181,167c-2.89,1.68-2.89,4.4,0,6.09m21-12.18a11.59,11.59,0,0,0,10.51,0c2.89-1.68,2.88-4.41,0-6.09a11.57,11.57,0,0,0-10.51,0c-2.89,1.68-2.89,4.4,0,6.09"/><path class="cls-37" d="M109.8,304.72v5.19c0,2.88-2.06,4.07-4.57,2.62L70.46,292.46a10.08,10.08,0,0,1-4.55-7.88v-5.19c0-2.88,2.07-4.06,4.58-2.61l34.75,20.07A10.05,10.05,0,0,1,109.8,304.72ZM58.23,246.28,23.48,226.22c-2.52-1.46-4.57-.27-4.58,2.61V234a10.06,10.06,0,0,0,4.55,7.88L58.18,262c2.51,1.45,4.57.27,4.58-2.61v-5.19A10.08,10.08,0,0,0,58.23,246.28Zm47.09,27.19L70.57,253.41C68.06,252,66,253.13,66,256v5.19a10.08,10.08,0,0,0,4.55,7.88l34.75,20.07c2.51,1.45,4.56.27,4.57-2.62v-5.19A10.05,10.05,0,0,0,105.32,273.47Zm-47.16-3.82L23.42,249.59c-2.52-1.46-4.57-.27-4.58,2.61v5.19a10.06,10.06,0,0,0,4.55,7.88l34.74,20.06c2.51,1.45,4.57.27,4.58-2.61v-5.19A10.08,10.08,0,0,0,58.16,269.65Zm141.34,58.2-34.75-20.07c-2.51-1.45-4.56-.27-4.57,2.62v5.19a10.05,10.05,0,0,0,4.54,7.88l34.75,20.07c2.51,1.45,4.57.27,4.58-2.61v-5.19A10.08,10.08,0,0,0,199.5,327.85ZM152.34,324,117.6,304c-2.51-1.45-4.57-.27-4.58,2.61v5.19a10.08,10.08,0,0,0,4.55,7.88l34.74,20.06c2.51,1.45,4.57.27,4.58-2.61v-5.19A10.08,10.08,0,0,0,152.34,324Zm47.09,27.19-34.75-20.07c-2.51-1.45-4.56-.27-4.57,2.62V339a10.05,10.05,0,0,0,4.54,7.88l34.75,20.07c2.51,1.45,4.57.27,4.58-2.61V359.1A10.08,10.08,0,0,0,199.44,351.21Zm-47-50.56L117.66,280.6c-2.51-1.45-4.57-.27-4.58,2.61v5.19a10.08,10.08,0,0,0,4.55,7.88l34.74,20.06c2.51,1.45,4.57.27,4.58-2.61v-5.19A10.08,10.08,0,0,0,152.41,300.66Z"/><path class="cls-38" d="M66.21,275.45h0v5.23h0v0h0v.33h0v0h0v1.39h0v.08l0,0,0,0,0,0,0,0,0,0,0,0,0,0,0,0,0,0,0,0,0,0,0,0,0,0,0,0,0,.05-.05.06h0l0,.05-.05.06a2.24,2.24,0,0,1-.45.35l-3.49,2a2.26,2.26,0,0,0,.55-.46h0a3.66,3.66,0,0,0,.78-2.46v-5.19a7.75,7.75,0,0,0-.35-2.24h0a10.61,10.61,0,0,0-.84-2q-.15-.27-.31-.54t-.34-.51l-.36-.49c-.19-.24-.38-.48-.58-.7h0a7.83,7.83,0,0,0-1.77-1.44L23.42,249.59a3.71,3.71,0,0,0-2.57-.57h0a2.25,2.25,0,0,0-.68.26l3.49-2,0,0,0,0,0,0,0,0,0,0,0,0h3l34.74,20.06h.74l0,0,0,0,0,0,0,0,0,0,0,0,0,0,0,0,0,0,0,0,0,0,0,0,0,0,0,0,0,0,0,0,0,0,0,0,0,0,0,0,0,0,0,0,0,0,0,0,0,0,0,0,0,0,0,0,0,0,0,0,0,0,0,0,0,0,0,0,0,0,0,0,0,0,0,0,0,0,0,0,0,0,0,0,0,0,0,0,0,0h0l0,0,0,0,0,0,0,0,0,0,0,0,0,0,0,0,0,0,0,0,0,0,0,.05c.07.08.12.17.18.25s.25.32.36.49.23.34.34.51.21.35.31.54.11.18.16.27l0,.05,0,.05,0,.05,0,.05,0,.05,0,.05,0,0,0,0,0,0,0,0,0,0,0,0,0,0,0,0,0,0,0,0,0,0v.9h0v1.39h0v0h0V275h0v.35h0v0h0v.07Zm.07-23.39v0h0v-.35h0v0h0v-.23h0v-1.48h0V249l0,0,0,0,0,0,0,0,0,0v0h0v0l0,0,0,0,0,0,0,0,0,0,0-.05,0-.05,0-.05,0-.05,0-.05,0-.05c0-.09-.11-.18-.16-.27s-.2-.36-.31-.54-.22-.34-.33-.51l-.36-.5-.18-.25,0-.05,0,0,0,0,0,0,0,0,0,0,0,0,0,0,0,0,0,0,0,0,0,0h0l0,0,0,0,0,0,0,0,0,0,0,0,0,0,0,0,0,0,0,0,0,0,0,0,0,0,0,0,0,0,0,0,0,0,0,0,0,0,0,0,0,0,0,0,0,0,0,0,0,0,0,0,0,0,0,0,0,0,0,0,0,0,0,0,0,0,0,0,0,0,0,0,0,0,0,0,0,0,0,0,0,0,0,0,0,0,0,0,0,0h-.74L27,224.19H24l0,0,0,0,0,0,0,0,0,0,0,0-3.49,2a2.25,2.25,0,0,1,.68-.26h0a3.71,3.71,0,0,1,2.57.57l34.74,20.06A7.84,7.84,0,0,1,60,247.72h0c.2.22.39.46.58.7l.36.5q.17.25.33.51t.31.54c.15.27.29.54.42.82h0a10.21,10.21,0,0,1,.42,1.13h0a8.69,8.69,0,0,1,.26,1.14h0a6.9,6.9,0,0,1,.09,1.11v5.19a5.1,5.1,0,0,1-.1,1h0a3.63,3.63,0,0,1-.27.83h0a2.7,2.7,0,0,1-.42.65h0a2.26,2.26,0,0,1-.55.46l3.49-2a2.23,2.23,0,0,0,.45-.35l.05-.06,0-.05h0l.05-.06,0-.05,0,0,0,0,0,0,0,0,0,0,0,0,0,0,0,0,0,0,0,0,0,0,0,0,0,0,0,0v-.08h0v-.81h0v-.52h0v0h0v0h0v-.11h0v0h0v-.17h0v-5.19h0v0Zm47,50.57h0v-.4h0V302h0v-1.49h0v-.92l0,0,0,0,0,0,0,0,0,0h0v0l0,0,0,0,0,0,0,0,0,0,0-.05,0-.05,0-.05,0-.05,0-.05,0-.05c0-.09-.1-.18-.15-.27s-.2-.36-.31-.54-.22-.34-.33-.51-.24-.33-.36-.49-.12-.17-.19-.25l0-.05,0,0,0,0,0,0,0,0,0,0,0,0,0,0,0,0,0,0,0,0,0,0,0,0,0,0,0,0,0,0,0,0,0,0,0,0,0,0,0,0,0,0,0,0,0,0,0,0,0,0,0,0,0,0,0,0,0,0,0,0,0,0,0,0,0,0,0,0,0,0,0,0,0,0,0,0,0,0,0,0,0,0,0,0,0,0,0,0,0,0,0,0,0,0h0l0,0,0,0,0,0,0,0,0,0,0,0,0,0,0,0h-.74L74,274.75H71l0,0,0,0,0,0,0,0,0,0,0,0-3.49,2a2.25,2.25,0,0,1,.68-.26h0a2.71,2.71,0,0,1,.78,0h0a3.67,3.67,0,0,1,.86.19h0a5.17,5.17,0,0,1,.92.42l34.75,20.07a7,7,0,0,1,.92.64h0a9.33,9.33,0,0,1,1.43,1.5q.19.24.36.49t.33.51q.16.26.31.53a9.11,9.11,0,0,1,1.19,4.21v5.19a3.68,3.68,0,0,1-.78,2.47h0a2.25,2.25,0,0,1-.55.46l3.49-2a2.23,2.23,0,0,0,.45-.35l.05-.05.05-.06.05-.06,0-.05,0,0,0,0,0,0,0,0,0,0,0,0,0,0,0,0,0,0,0,0,0,0,0,0,0,0v-.11h0v-1.16h0v0h0V308h0v0h0v0h0v-5.19h0Zm.07-23.37v-.06h0v0h0v0h0v0h0v-.23h0v-.24h0v-1.47h0v-.92l0,0,0,0,0,0,0,0,0,0h0v0l0,0,0,0,0,0,0,0,0,0,0-.05,0-.05,0-.05,0-.05,0-.05,0-.05c0-.09-.1-.18-.15-.26s-.2-.36-.31-.54-.22-.34-.33-.51-.24-.33-.36-.49-.12-.17-.19-.25l0-.05,0,0,0,0,0,0,0,0,0,0,0,0,0,0,0,0,0,0,0,0h0l0,0,0,0,0,0,0,0,0,0,0,0,0,0,0,0,0,0,0,0,0,0,0,0,0,0,0,0,0,0,0,0,0,0,0,0,0,0,0,0,0,0,0,0,0,0,0,0,0,0,0,0,0,0,0,0,0,0,0,0,0,0,0,0,0,0,0,0,0,0,0,0,0,0,0,0,0,0,0,0,0,0,0,0,0,0,0,0,0,0h-.74L74.06,251.38h-3l0,0,0,0,0,0,0,0,0,0,0,0-3.49,2a2.26,2.26,0,0,1,.68-.26h0a2.71,2.71,0,0,1,.78,0h0a3.65,3.65,0,0,1,.86.19h0a5.16,5.16,0,0,1,.92.42l34.75,20.07a7,7,0,0,1,.92.64h0a8.76,8.76,0,0,1,.85.8h0c.2.22.39.46.58.7l.36.49q.17.25.33.51t.31.53a9.1,9.1,0,0,1,1.19,4.2v5.19a5.12,5.12,0,0,1-.09,1h0a3.12,3.12,0,0,1-.69,1.47h0a2.25,2.25,0,0,1-.55.46l3.49-2a2.22,2.22,0,0,0,.45-.35l.05-.05,0-.05h0l.05-.06,0-.05,0,0,0,0,0,0,0,0,0,0,0,0,0,0,0,0,0,0,0,0,0,0,0,0,0,0v-.11h0v-1.79h0v-5.19h0v0Zm47,50.54h0v-.09h0v-.33h0v-.28h0v-.26h0v-2l0,0,0,0,0,0,0,0,0,0v0h0v0l0,0,0,0,0,0,0,0,0,0,0-.05,0-.05,0-.05,0-.05,0-.05,0-.05c0-.09-.11-.18-.16-.27s-.2-.36-.31-.54-.22-.35-.34-.51l-.36-.49-.18-.25,0-.05,0,0,0,0,0,0,0,0,0,0,0,0,0,0,0,0,0,0,0,0,0,0h0l0,0,0,0,0,0,0,0,0,0,0,0,0,0,0,0,0,0,0,0,0,0,0,0,0,0,0,0,0,0,0,0,0,0,0,0,0,0,0,0,0,0,0,0,0,0,0,0,0,0,0,0,0,0,0,0,0,0,0,0,0,0,0,0,0,0,0,0,0,0,0,0,0,0,0,0,0,0,0,0,0,0,0,0,0,0,0,0,0,0h-.74l-34.74-20.06h-3l0,0,0,0,0,0,0,0,0,0,0,0-3.49,2a2.26,2.26,0,0,1,.68-.26h0a2.71,2.71,0,0,1,.78,0h0a3.66,3.66,0,0,1,.86.19h0a5.18,5.18,0,0,1,.92.42L152.34,324a7.84,7.84,0,0,1,1.77,1.44h0c.2.22.39.46.58.7l.36.5q.17.25.33.51t.31.54c.15.27.29.54.42.82h0a8.56,8.56,0,0,1,.77,3.38v5.19a4.3,4.3,0,0,1-.36,1.82h0a2.7,2.7,0,0,1-.42.65h0a2.26,2.26,0,0,1-.55.46l3.49-2a2.22,2.22,0,0,0,.45-.35l.05-.06,0-.05h0l.05-.06,0-.05,0,0,0,0,0,0,0,0,0,0,0,0,0,0,0,0,0,0,0,0,0,0,0,0,0,0v-.11h0V335.5h0v-.29h0v-.1h0v-5.19h0s0,0,0,0v0Zm.07-23.37v-.1h0v-.42h0v-.47h0v-2l0,0,0,0,0,0,0,0,0,0,0,0,0,0,0,0,0,0,0,0,0,0,0-.05,0-.05,0-.05,0-.05,0-.05,0-.05c0-.09-.11-.18-.16-.27s-.2-.36-.31-.54-.22-.35-.34-.51l-.36-.49-.18-.25,0-.05,0,0,0,0,0,0,0,0,0,0,0,0,0,0,0,0,0,0,0,0,0,0h0l0,0,0,0,0,0,0,0,0,0,0,0,0,0,0,0,0,0,0,0,0,0,0,0,0,0,0,0,0,0,0,0,0,0,0,0,0,0,0,0,0,0,0,0,0,0,0,0,0,0,0,0,0,0,0,0,0,0,0,0,0,0,0,0,0,0,0,0,0,0,0,0,0,0,0,0,0,0,0,0,0,0,0,0,0,0,0,0,0,0h-.74l-34.74-20.06h-3l0,0,0,0,0,0,0,0,0,0,0,0-3.49,2a2.25,2.25,0,0,1,.68-.26h0a2.71,2.71,0,0,1,.78,0h0a4.35,4.35,0,0,1,1.78.61l34.74,20.06a7.83,7.83,0,0,1,1.77,1.44h0c.2.22.39.46.58.7l.36.49q.17.25.34.51t.31.54a10.62,10.62,0,0,1,.84,2h0a7.75,7.75,0,0,1,.35,2.24v5.19a5.1,5.1,0,0,1-.1,1h0a3.63,3.63,0,0,1-.27.82h0a2.7,2.7,0,0,1-.42.64h0a2.25,2.25,0,0,1-.55.46l3.49-2a2.23,2.23,0,0,0,.45-.35l.05-.06,0-.05h0l.05-.06,0-.05,0,0,0,0,0,0,0,0,0,0,0,0,0,0,0,0,0,0,0,0,0,0,0,0,0,0v-.11h0v-1h0v-.07h0v0h0v0h0v-.55h0v-5.19h0s0,0,0,0v0Zm47,50.56h0v-.42h0v0h0v-2.58l0,0,0,0,0,0,0,0,0,0v0h0v0l0,0,0,0,0,0,0,0,0,0,0-.05,0-.05,0-.05,0-.05,0-.05,0-.05c0-.09-.11-.18-.16-.27s-.2-.36-.31-.54-.22-.34-.33-.51-.24-.33-.37-.5l-.18-.25,0-.05,0,0,0,0,0,0,0,0,0,0,0,0,0,0,0,0,0,0,0,0,0,0h0l0,0,0,0,0,0,0,0,0,0,0,0,0,0,0,0,0,0,0,0,0,0,0,0,0,0,0,0,0,0,0,0,0,0,0,0,0,0,0,0,0,0,0,0,0,0,0,0,0,0,0,0,0,0,0,0,0,0,0,0,0,0,0,0,0,0,0,0,0,0,0,0,0,0,0,0,0,0,0,0,0,0,0,0,0,0,0,0,0,0h-.74l-34.75-20.07h-3l0,0-.05,0,0,0,0,0,0,0,0,0-3.49,2a2.44,2.44,0,0,1,1.46-.3h0a4.34,4.34,0,0,1,1.78.61l34.75,20.07a7.84,7.84,0,0,1,1.77,1.44h0c.2.22.39.46.58.7s.25.33.36.5.23.34.33.51.21.36.31.54.29.54.42.82h0a10.21,10.21,0,0,1,.42,1.13h0a7.75,7.75,0,0,1,.35,2.24v5.19a4.3,4.3,0,0,1-.36,1.82h0a2.69,2.69,0,0,1-.42.65h0a2.25,2.25,0,0,1-.55.46l3.49-2a2.22,2.22,0,0,0,.45-.35l.05-.06,0-.05h0l.05-.06,0-.05,0,0,0,0,0,0,0,0,0,0,0,0,0,0,0,0,0,0,0,0,0,0,0,0,0,0,0,0v-.08h0v-1.68h0v-.1h0v-5.19h0v0Zm.07-23.35v-.14h0v0h0v-.63h0v-2.26l0,0,0,0,0,0,0,0,0,0v0h0v0l0,0,0,0,0,0,0,0,0,0,0-.05,0-.05,0-.05,0-.05,0-.05,0-.05c0-.09-.11-.18-.16-.27s-.2-.36-.31-.54-.22-.35-.34-.51l-.36-.49-.18-.25,0-.05,0,0,0,0,0,0,0,0,0,0,0,0,0,0,0,0,0,0,0,0,0,0h0l0,0,0,0,0,0,0,0,0,0,0,0,0,0,0,0,0,0,0,0,0,0,0,0,0,0,0,0,0,0,0,0,0,0,0,0,0,0,0,0,0,0,0,0,0,0,0,0,0,0,0,0,0,0,0,0,0,0,0,0,0,0,0,0,0,0,0,0,0,0,0,0,0,0,0,0,0,0,0,0,0,0,0,0,0,0,0,0,0,0H203l-34.75-20.07h-3l0,0-.05,0,0,0,0,0,0,0,0,0-3.49,2a2.25,2.25,0,0,1,.68-.26h0a2.7,2.7,0,0,1,.78,0h0a4.34,4.34,0,0,1,1.78.61l34.75,20.07a7.84,7.84,0,0,1,1.77,1.44h0c.2.22.39.46.58.7s.25.33.36.5.23.34.34.51.21.35.31.54a9.09,9.09,0,0,1,1.19,4.2v5.19a4.3,4.3,0,0,1-.36,1.82h0a2.7,2.7,0,0,1-.42.65h0a2.26,2.26,0,0,1-.55.46l3.49-2a2.23,2.23,0,0,0,.45-.35l.05-.06.05-.06.05-.06,0-.05,0,0,0,0,0,0,0,0,0,0,0,0,0,0,0,0,0,0,0,0,0,0,0,0,0,0,0,0v-.08h0v-1.1h0v-.07h0v-.59h0V333.7h0v0Z"/><path class="cls-39" d="M45,413.42l-.11,39.92c0,2.88-1.13,4.6-2.5,3.81l-2.47-1.42c-1.37-.79-2.48-3.8-2.47-6.69l.11-39.92c0-2.88,1.13-4.6,2.5-3.81l2.47,1.42C43.87,407.53,45,410.53,45,413.42Zm8.62-.28-2.47-1.42c-1.37-.79-2.5.93-2.5,3.81l-.11,39.92c0,2.88,1.1,5.89,2.47,6.69l2.47,1.42c1.36.79,2.5-.93,2.5-3.81l.11-39.92C56.08,416.94,55,413.93,53.6,413.14ZM65,419.72l-2.47-1.42c-1.37-.79-2.5.93-2.5,3.81L59.91,462c0,2.88,1.1,5.89,2.47,6.69l2.47,1.42c1.36.79,2.5-.93,2.5-3.81l.11-39.92C67.48,423.52,66.36,420.51,65,419.72Zm11.09,6.4-2.46-1.42c-1.37-.79-2.51.92-2.51,3.8L71,468.43c0,2.88,1.11,5.9,2.48,6.69l2.46,1.42c1.37.79,2.51-.92,2.51-3.8l.11-39.92C78.58,429.93,77.46,426.92,76.09,426.12Zm11.4,6.58L85,431.28c-1.36-.79-2.5.93-2.5,3.81L82.4,475c0,2.88,1.11,5.9,2.47,6.69l2.47,1.42c1.37.79,2.5-.93,2.5-3.81L90,439.39C90,436.51,88.86,433.5,87.49,432.71Zm11.1,6.41-2.47-1.42c-1.37-.79-2.5.93-2.5,3.81l-.11,39.92c0,2.88,1.1,5.89,2.47,6.69l2.47,1.42c1.37.79,2.5-.93,2.5-3.81l.11-39.92C101.07,442.91,100,439.9,98.58,439.11ZM110,445.7l-2.47-1.42c-1.37-.79-2.5.93-2.5,3.81L104.9,488c0,2.88,1.1,5.89,2.47,6.69l2.47,1.42c1.37.79,2.5-.93,2.5-3.81l.11-39.92C112.47,449.5,111.36,446.49,110,445.7Zm11.1,6.41-2.47-1.42c-1.37-.79-2.5.93-2.5,3.81L116,494.41c0,2.88,1.1,5.89,2.47,6.68l2.47,1.43c1.37.79,2.5-.93,2.5-3.81l.11-39.92C123.56,455.9,122.45,452.89,121.08,452.1Zm11.15,6.44-2.46-1.42c-1.37-.79-2.51.92-2.51,3.8l-.11,39.92c0,2.88,1.11,5.9,2.48,6.69l2.46,1.42c1.37.79,2.5-.93,2.5-3.81l.11-39.92C134.71,462.34,133.6,459.33,132.23,458.54Zm11.1,6.41-2.47-1.42c-1.37-.79-2.5.93-2.5,3.81l-.11,39.92c0,2.88,1.1,5.89,2.47,6.68l2.47,1.42c1.37.79,2.5-.93,2.5-3.81l.11-39.92C145.81,468.75,144.7,465.74,143.33,464.95Zm11.4,6.58-2.47-1.42c-1.37-.79-2.5.93-2.5,3.81l-.11,39.92c0,2.88,1.1,5.89,2.47,6.69l2.47,1.42c1.37.79,2.5-.93,2.5-3.81l.11-39.92C157.21,475.33,156.1,472.32,154.73,471.53Zm11.1,6.41-2.47-1.42c-1.37-.79-2.5.93-2.5,3.81l-.11,39.92c0,2.88,1.1,5.89,2.47,6.69l2.47,1.42c1.37.79,2.5-.93,2.5-3.81l.11-39.92C168.31,481.73,167.19,478.73,165.82,477.93Zm11.4,6.58-2.47-1.42c-1.37-.79-2.5.93-2.5,3.81l-.11,39.92c0,2.88,1.1,5.89,2.47,6.69l2.47,1.42c1.37.79,2.5-.93,2.5-3.81l.11-39.92C179.71,488.32,178.6,485.31,177.23,484.52Zm11.1,6.41-2.47-1.42c-1.37-.79-2.5.93-2.5,3.81l-.11,39.92c0,2.88,1.1,5.89,2.47,6.69l2.47,1.42c1.36.79,2.5-.93,2.5-3.81l.11-39.92C190.8,494.72,189.68,491.71,188.32,490.92Z"/><path class="cls-40" d="M48.47,411.29v-1h0v-3h0v-.67l0,0,0,0,0,0,0,0v0h0l0,0,0-.06a5.54,5.54,0,0,0-.53-.83s-.05-.09-.08-.13v-.14H46l-2.47-1.42H42.39l0,0h0l-3.49,2a1.13,1.13,0,0,1,1.2,0l2.47,1.42a2.92,2.92,0,0,1,.8.76,5.55,5.55,0,0,1,.53.83l.06.11h0a8.72,8.72,0,0,1,.37.85h0a12,12,0,0,1,.67,3h0c0,.36,0,.72,0,1.08l-.11,39.92a9.51,9.51,0,0,1-.1,1.37h0a6.26,6.26,0,0,1-.27,1.13h0a3.48,3.48,0,0,1-.41.84h0a1.71,1.71,0,0,1-.53.51l3.49-2a1.45,1.45,0,0,0,.29-.22l0,0,0,0,0-.05,0,0,0,0,0,0,0,0h0l0,0,0,0,0,0,0,0,0,0,0,0,0,0,0,0,0,0,0,0,0,0,0,0v-2.95h0l.11-39.93v-.1Z"/><path class="cls-41" d="M59.57,417.7v-2h0V413l0,0,0,0,0,0,0,0,0,0,0,0,0,0a6.29,6.29,0,0,0-.36-.62L58,412c-.06-.08-.11-.17-.18-.24v-.1l0,0v0h-.59l-2.47-1.42H53.48l0,0h0l-3.49,2a1.13,1.13,0,0,1,1.2,0l2.47,1.42a3,3,0,0,1,.89.88l.11.15a9.68,9.68,0,0,1,1.29,3.5h0a12.11,12.11,0,0,1,.19,2.15L56,459.75a9.44,9.44,0,0,1-.1,1.37h0a6.21,6.21,0,0,1-.27,1.12h0a3.47,3.47,0,0,1-.41.84h0a1.72,1.72,0,0,1-.53.51l3.49-2a1.46,1.46,0,0,0,.29-.23l0,0,0,0,0-.05,0,0,0,0,0,0,0,0h0l0,0,0,0,0,0,0,0,0,0,0,0,0,0,0,0,0,0,0,0,0,0,0,0,0,0v-.42h0v-2.47h0l.11-39.92v-.1Z"/><path class="cls-42" d="M71,424.24v-3h0v-.95h0v-.61l0,0,0,0,0,0,0,0,0,0,0,0,0,0,0,0a6.28,6.28,0,0,0-.36-.62l-.11-.15c-.06-.08-.11-.17-.17-.24v-.07l0,0v0l0,0v0h-.59L66,416.27H64.89l0,0h0l-3.49,2a1.06,1.06,0,0,1,.57-.15h0a1.32,1.32,0,0,1,.63.19L65,419.72a2.38,2.38,0,0,1,.5.39h0a4,4,0,0,1,.39.48l.11.15a6.35,6.35,0,0,1,.39.67h0a8.83,8.83,0,0,1,.37.85h0c.11.3.21.62.3,1h0a12.26,12.26,0,0,1,.42,3.17l-.11,39.92a7.76,7.76,0,0,1-.37,2.5h0a2.45,2.45,0,0,1-.94,1.35l3.49-2a1.45,1.45,0,0,0,.29-.23l0,0,0,0,0-.05,0,0,0,0,0,0,0,0,0,0,0,0,0,0,0,0,0,0,0,0,0,0,0,0,0,0,0,0,0,0,0,0,0,0v-.42h0v-2.47h0L71,424.38v-.14Z"/><path class="cls-43" d="M82.06,430.65v-.95h0v-1.05h0v-2h0v-.57l0,0,0,0,0,0,0,0,0,0,0,0,0,0,0,0h0l0,0a6.28,6.28,0,0,0-.37-.63l-.11-.16c-.06-.08-.11-.17-.17-.24v-.12l0,0h-.6l-2.46-1.42H76l0,0h0l-3.49,2a1.07,1.07,0,0,1,.57-.15h0a1.33,1.33,0,0,1,.63.19l2.46,1.42a2.41,2.41,0,0,1,.5.4h0A4.07,4.07,0,0,1,77,427l.11.16a6.35,6.35,0,0,1,.39.67h0a9.86,9.86,0,0,1,.67,1.81h0a12.24,12.24,0,0,1,.42,3.18l-.11,39.92a9.43,9.43,0,0,1-.1,1.37h0a6.22,6.22,0,0,1-.27,1.12h0a2.45,2.45,0,0,1-.94,1.35l3.49-2a1.46,1.46,0,0,0,.29-.22l0,0,0-.05,0-.05,0,0,0,0,0,0,0,0,0,0,0,0,0,0,0,0,0,0,0,0,0,0,0,0,0,0,0,0,0,0,0,0,0,0v-.42h0v-1.11h0v-1.36h0l.11-39.92v-.14Z"/><path class="cls-44" d="M93.45,437.22v-.94h0v-2.08h0v-1.62l0,0,0,0,0,0,0,0v0h0l0,0,0-.06a5.56,5.56,0,0,0-.53-.83s-.05-.09-.08-.13v-.12l0,0H91l-2.47-1.42H87.38l0,0h0l-3.49,2a1.06,1.06,0,0,1,.57-.15h0a1.31,1.31,0,0,1,.62.19l2.47,1.42a2.92,2.92,0,0,1,.8.76,5.56,5.56,0,0,1,.53.83l.06.11h0a9.83,9.83,0,0,1,.67,1.81h0a12.4,12.4,0,0,1,.37,2.09h0c0,.36,0,.72,0,1.08l-.11,39.92a9.51,9.51,0,0,1-.1,1.37h0a6.25,6.25,0,0,1-.27,1.13h0a3.47,3.47,0,0,1-.41.84h0a1.71,1.71,0,0,1-.53.51l3.49-2a1.45,1.45,0,0,0,.29-.22l0,0,0,0,0-.05,0,0,0,0,0,0,0,0h0l0,0,0,0,0,0,0,0,0,0,0,0,0,0,0,0,0,0,0,0,0,0,0,0v-.46h0v-1.12h0V477.3h0l.11-39.93v-.14Z"/><path class="cls-45" d="M104.55,443.63v-.94h0v-2.08h0V439l0,0,0,0,0,0,0,0,0,0v0h0l0,0,0-.06a5.57,5.57,0,0,0-.53-.83l-.08-.13v-.1l0,0v0h-.6l-2.47-1.42H98.47l0,0h0l-3.49,2a1.13,1.13,0,0,1,1.2,0l2.47,1.42a2.92,2.92,0,0,1,.8.76,5.59,5.59,0,0,1,.53.83l.06.11h0a9.83,9.83,0,0,1,.67,1.81h0a12.41,12.41,0,0,1,.37,2.09h0c0,.36,0,.72,0,1.08l-.11,39.92a9.51,9.51,0,0,1-.1,1.37h0a6.25,6.25,0,0,1-.27,1.13h0a2.44,2.44,0,0,1-.94,1.35l3.49-2a1.46,1.46,0,0,0,.29-.22l0,0,0,0,0-.05,0,0,0,0,0,0,0,0h0l0,0,0,0,0,0,0,0,0,0,0,0,0,0,0,0,0,0,0,0,0,0,0,0v-1.58h0V483.7h0l.11-39.92v-.14Z"/><path class="cls-46" d="M116,450.25v-1h0v-2.08h0v-1.62l0,0,0,0,0,0,0,0,0,0,0,0,0-.06a5.53,5.53,0,0,0-.53-.83s-.05-.09-.08-.13v-.12l0,0h-.6L111,442.24h-1.14l0,0h0l-3.49,2a1.06,1.06,0,0,1,.57-.15h0a1.32,1.32,0,0,1,.63.19L110,445.7a2.4,2.4,0,0,1,.5.4h0a4,4,0,0,1,.3.37,5.57,5.57,0,0,1,.53.83,11.14,11.14,0,0,1,1.1,4h0c0,.36,0,.72,0,1.08l-.11,39.92a7.81,7.81,0,0,1-.37,2.5h0a3.48,3.48,0,0,1-.41.84h0a1.71,1.71,0,0,1-.53.51l3.49-2a1.44,1.44,0,0,0,.29-.22l0,0,0,0,0-.05,0,0,0,0,0,0,0,0h0l0,0,0,0,0,0,0,0,0,0,0,0,0,0,0,0,0,0,0,0,0,0,0,0v-.46h0v-2.48h0l.11-39.93v-.1Z"/><path class="cls-47" d="M127,456.62v-.94h0v-1.06h0v-1h0v-.94h0V452l0,0,0,0,0,0,0,0,0,0,0,0,0-.06a5.56,5.56,0,0,0-.53-.83s-.05-.09-.08-.13v-.12l0,0h-.6l-2.47-1.42H121l0,0h0l-3.49,2a1.06,1.06,0,0,1,.57-.15h0a1.32,1.32,0,0,1,.63.19l2.47,1.42a2.4,2.4,0,0,1,.5.4h0a4,4,0,0,1,.3.37,5.57,5.57,0,0,1,.53.83l.06.11h0a8.79,8.79,0,0,1,.37.85h0a11.59,11.59,0,0,1,.53,2h0c.06.35.11.71.14,1.07h0c0,.36,0,.72,0,1.08l-.11,39.92a6.12,6.12,0,0,1-.78,3.34h0a1.71,1.71,0,0,1-.53.51l3.49-2a1.44,1.44,0,0,0,.29-.22l0,0,0,0,0-.05,0,0,0,0,0,0,0,0h0l0,0,0,0,0,0,0,0,0,0,0,0,0,0,0,0,0,0,0,0,0,0,0,0v-1.58h0v-1.36h0l.11-39.92v-.14Z"/><path class="cls-48" d="M138.2,463.09v-1h0V461h0v-2h0v-.68l0,0,0,0,0,0,0,0,0,0,0,0,0-.06a5.56,5.56,0,0,0-.53-.83s-.05-.09-.08-.13V457l0,0v0h-.6l-2.46-1.42h-1.14l0,0h0l-3.49,2a1.07,1.07,0,0,1,.57-.15h0a1.33,1.33,0,0,1,.63.19l2.46,1.42a2.92,2.92,0,0,1,.8.76,5.56,5.56,0,0,1,.53.83l.06.11h0a8.73,8.73,0,0,1,.37.85h0a12,12,0,0,1,.67,3h0c0,.36,0,.72,0,1.08l-.11,39.92a6.12,6.12,0,0,1-.78,3.34h0a1.71,1.71,0,0,1-.53.51l3.49-2a1.44,1.44,0,0,0,.29-.22l0,0,0,0,0-.05,0,0,0,0,0,0,0,0h0l0,0,0,0,0,0,0,0,0,0,0,0,0,0,0,0,0,0,0,0,0,0,0,0v-2.95h0l.11-39.92v-.1Z"/><path class="cls-49" d="M149.29,469.5v-1h0v-3h0v-.67l0,0,0,0,0,0,0,0v0h0l0,0,0-.06a5.57,5.57,0,0,0-.53-.83s-.05-.09-.08-.13v-.14h-.6l-2.47-1.42h-1.14l0,0h0l-3.49,2a1.06,1.06,0,0,1,.57-.15h0a1.33,1.33,0,0,1,.63.19l2.47,1.42a2.92,2.92,0,0,1,.8.76,5.57,5.57,0,0,1,.53.83l.06.11h0a11.33,11.33,0,0,1,1,3.9h0c0,.36,0,.72,0,1.08l-.11,39.92a6.12,6.12,0,0,1-.78,3.34h0a1.71,1.71,0,0,1-.53.51l3.49-2a1.44,1.44,0,0,0,.29-.22l0,0,0,0,0-.05,0,0,0,0,0,0,0,0h0l0,0,0,0,0,0,0,0,0,0,0,0,0,0,0,0,0,0,0,0,0,0,0,0v-2.95h0l.11-39.93v-.1Z"/><path class="cls-50" d="M160.69,476v-.94h0V474h0v-1h0v-1.59l0,0,0,0,0,0,0,0,0,0v0h0l0,0,0-.06a5.57,5.57,0,0,0-.53-.83s-.05-.09-.08-.13V470l0,0h-.6l-2.47-1.42h-1.14l0,0h0l-3.49,2a1.13,1.13,0,0,1,1.2,0l2.47,1.42a2.4,2.4,0,0,1,.5.4h0a4,4,0,0,1,.3.37,5.56,5.56,0,0,1,.53.83,8.46,8.46,0,0,1,.43,1h0c.11.3.21.62.3,1h0c.09.33.16.67.23,1h0c.06.35.11.7.14,1.06h0c0,.36,0,.72,0,1.08l-.11,39.92a9.51,9.51,0,0,1-.1,1.37h0a4.72,4.72,0,0,1-.68,2h0a1.71,1.71,0,0,1-.53.51l3.49-2a1.46,1.46,0,0,0,.29-.22l0,0,0,0,0-.05,0,0,0,0,0,0,0,0h0l0,0,0,0,0,0,0,0,0,0,0,0,0,0,0,0,0,0,0,0,0,0,0,0v-.46h0v-1.12h0v-1.36h0l.11-39.92V476Z"/><path class="cls-51" d="M171.79,482.45v-.94h0v-1.06h0v-1h0v-.94h0v-.67l0,0,0,0,0,0,0,0v0h0l0,0,0-.06a5.54,5.54,0,0,0-.53-.83s-.05-.09-.08-.13v-.14h-.6l-2.47-1.42h-1.14l0,0h0l-3.49,2a1.06,1.06,0,0,1,.57-.15h0a1.32,1.32,0,0,1,.63.19l2.47,1.42a2.92,2.92,0,0,1,.8.76,5.59,5.59,0,0,1,.53.83l.06.11h0a8.75,8.75,0,0,1,.37.85h0a11.59,11.59,0,0,1,.53,2h0c.06.35.11.7.14,1.06h0c0,.36,0,.72,0,1.08l-.11,39.92a9.51,9.51,0,0,1-.1,1.37h0a6.25,6.25,0,0,1-.27,1.13h0a3.48,3.48,0,0,1-.41.84h0a1.71,1.71,0,0,1-.53.51h0l3.49-2a1.45,1.45,0,0,0,.29-.22l0,0,0,0,0-.05,0,0,0,0,0,0,0,0,0,0,0,0,0,0,0,0,0,0,0,0,0,0,0,0,0,0,0,0,0,0,0,0V525h0v-1.12h0v-1.36h0l.11-39.92v-.14Z"/><path class="cls-52" d="M183.19,489.07v-1h0V486h0V484.4l0,0,0,0,0,0,0,0,0,0v0h0l0,0,0-.06a5.57,5.57,0,0,0-.53-.83s-.05-.09-.08-.13V483l0,0h-.6l-2.47-1.42h-1.14l0,0h0l-3.49,2a1.13,1.13,0,0,1,1.2,0l2.47,1.42a2.92,2.92,0,0,1,.8.76,5.58,5.58,0,0,1,.53.83l.06.11h0a9.83,9.83,0,0,1,.67,1.81h0a12.4,12.4,0,0,1,.37,2.09h0c0,.36,0,.72,0,1.08l-.11,39.92a9.51,9.51,0,0,1-.1,1.37h0a6.26,6.26,0,0,1-.27,1.13h0a3.48,3.48,0,0,1-.41.84h0a1.71,1.71,0,0,1-.53.51l3.49-2a1.45,1.45,0,0,0,.29-.22l0,0,0,0,0-.05,0,0,0,0,0,0,0,0h0l0,0,0,0,0,0,0,0,0,0,0,0,0,0,0,0,0,0,0,0,0,0,0,0v-.46h0v-2.48h0l.11-39.93v-.1Z"/><path class="cls-53" d="M194.29,495.52v-1h0V492.4h0v-.95h0v-.61l0,0,0,0,0,0,0,0,0,0,0,0,0,0,0,0a6.27,6.27,0,0,0-.36-.62l-.11-.15c-.06-.08-.11-.17-.18-.24v-.09l0,0,0,0v0h-.59l-2.47-1.42h-1.14l0,0h0l-3.49,2a1.06,1.06,0,0,1,.57-.15h0a1.32,1.32,0,0,1,.63.19l2.47,1.42a3,3,0,0,1,.89.88l.11.15a6.34,6.34,0,0,1,.39.67h0a8.8,8.8,0,0,1,.37.85h0c.11.3.21.62.3,1h0c.09.33.17.67.23,1h0a12.11,12.11,0,0,1,.19,2.15l-.11,39.92a7.76,7.76,0,0,1-.37,2.5h0a3.48,3.48,0,0,1-.41.84h0a1.72,1.72,0,0,1-.53.51l3.49-2a1.45,1.45,0,0,0,.29-.23l0,0,0,0,0-.05,0,0,0,0,0,0,0,0,0,0,0,0,0,0,0,0,0,0,0,0,0,0,0,0,0,0,0,0,0,0,0,0,0,0V538h0v-2.47h0l.11-39.92v-.06Z"/><path class="cls-54" d="M45,327.52l-.11,39.92c0,2.88-1.13,4.6-2.5,3.81l-2.47-1.42c-1.37-.79-2.48-3.8-2.47-6.69l.11-39.92c0-2.88,1.13-4.6,2.5-3.81l2.47,1.42C43.87,321.62,45,324.63,45,327.52Zm8.62-.28-2.47-1.42c-1.37-.79-2.5.93-2.5,3.81l-.11,39.92c0,2.88,1.1,5.89,2.47,6.69l2.47,1.42c1.36.79,2.5-.93,2.5-3.81l.11-39.92C56.08,331,55,328,53.6,327.24ZM65,333.82l-2.47-1.42c-1.37-.79-2.5.93-2.5,3.81l-.11,39.92c0,2.88,1.1,5.89,2.47,6.69l2.47,1.42c1.36.79,2.5-.93,2.5-3.81l.11-39.92C67.48,337.62,66.36,334.6,65,333.82Zm11.09,6.4-2.46-1.42c-1.37-.79-2.51.92-2.51,3.8L71,382.53c0,2.88,1.11,5.9,2.48,6.69l2.46,1.42c1.37.79,2.51-.92,2.51-3.8l.11-39.92C78.58,344,77.46,341,76.09,340.22Zm11.4,6.58L85,345.38c-1.36-.79-2.5.93-2.5,3.81l-.11,39.92c0,2.88,1.11,5.9,2.47,6.69l2.47,1.42c1.37.79,2.5-.93,2.5-3.81L90,353.49C90,350.6,88.86,347.59,87.49,346.8Zm11.1,6.41-2.47-1.42c-1.37-.79-2.5.93-2.5,3.81l-.11,39.92c0,2.88,1.1,5.89,2.47,6.69l2.47,1.42c1.37.79,2.5-.93,2.5-3.81l.11-39.92C101.07,357,100,354,98.58,353.21Zm11.4,6.58-2.47-1.42c-1.37-.79-2.5.93-2.5,3.81l-.11,39.92c0,2.88,1.1,5.89,2.47,6.69l2.47,1.42c1.37.79,2.5-.93,2.5-3.81l.11-39.92C112.47,363.59,111.36,360.58,110,359.79Zm11.1,6.41-2.47-1.42c-1.37-.79-2.5.93-2.5,3.81L116,408.51c0,2.88,1.1,5.89,2.47,6.68l2.47,1.43c1.37.79,2.5-.93,2.5-3.81l.11-39.92C123.56,370,122.45,367,121.08,366.2Zm11.15,6.44-2.46-1.42c-1.37-.79-2.51.92-2.51,3.8l-.11,39.92c0,2.88,1.11,5.9,2.48,6.69l2.46,1.42c1.37.79,2.5-.93,2.5-3.81l.11-39.92C134.71,376.43,133.6,373.43,132.23,372.63Zm11.1,6.41-2.47-1.42c-1.37-.79-2.5.93-2.5,3.81l-.11,39.92c0,2.88,1.1,5.89,2.47,6.68l2.47,1.42c1.37.79,2.5-.93,2.5-3.81l.11-39.92C145.81,382.84,144.7,379.83,143.33,379Zm11.4,6.58-2.47-1.42c-1.37-.79-2.5.93-2.5,3.81l-.11,39.92c0,2.88,1.1,5.89,2.47,6.69l2.47,1.42c1.37.79,2.5-.93,2.5-3.81l.11-39.92C157.21,389.42,156.1,386.41,154.73,385.62Zm11.1,6.41-2.47-1.42c-1.37-.79-2.5.93-2.5,3.81l-.11,39.92c0,2.88,1.1,5.89,2.47,6.69l2.47,1.42c1.37.79,2.5-.93,2.5-3.81l.11-39.92C168.31,395.83,167.19,392.82,165.82,392Zm11.4,6.58-2.47-1.42c-1.37-.79-2.5.93-2.5,3.81l-.11,39.92c0,2.88,1.1,5.89,2.47,6.69l2.47,1.42c1.37.79,2.5-.93,2.5-3.81l.11-39.92C179.71,402.41,178.6,399.4,177.23,398.61Zm11.1,6.41-2.47-1.42c-1.37-.79-2.5.93-2.5,3.81l-.11,39.92c0,2.88,1.1,5.89,2.47,6.69l2.47,1.42c1.36.79,2.5-.93,2.5-3.81l.11-39.92C190.8,408.82,189.68,405.8,188.32,405Z"/><path class="cls-55" d="M48.47,325.38v-1h0v-3h0v-.67l0,0,0,0,0,0,0,0v0h0l0,0,0-.06a5.54,5.54,0,0,0-.53-.83s-.05-.09-.08-.13v-.14H46l-2.47-1.42H42.39l0,0h0l-3.49,2a1.13,1.13,0,0,1,1.2,0l2.47,1.42a2.92,2.92,0,0,1,.8.76,5.55,5.55,0,0,1,.53.83l.06.11h0a8.72,8.72,0,0,1,.37.85h0a12,12,0,0,1,.67,3h0c0,.36,0,.72,0,1.08l-.11,39.92a9.51,9.51,0,0,1-.1,1.37h0a6.26,6.26,0,0,1-.27,1.13h0a3.48,3.48,0,0,1-.41.84h0a1.71,1.71,0,0,1-.53.51l3.49-2a1.45,1.45,0,0,0,.29-.22l0,0,0,0,0-.05,0,0,0,0,0,0,0,0h0l0,0,0,0,0,0,0,0,0,0,0,0,0,0,0,0,0,0,0,0,0,0,0,0v-2.95h0l.11-39.92v-.1Z"/><path class="cls-56" d="M59.57,331.79v-2h0v-2.62l0,0,0,0,0,0,0,0,0,0,0,0,0,0a6.29,6.29,0,0,0-.36-.62l-.11-.15c-.06-.08-.11-.17-.18-.24v-.1l0,0v0h-.59l-2.47-1.42H53.48l0,0h0l-3.49,2a1.13,1.13,0,0,1,1.2,0l2.47,1.42a3,3,0,0,1,.89.88l.11.15a9.68,9.68,0,0,1,1.29,3.5h0a12.11,12.11,0,0,1,.19,2.15L56,373.84a9.44,9.44,0,0,1-.1,1.37h0a6.21,6.21,0,0,1-.27,1.12h0a3.47,3.47,0,0,1-.41.84h0a1.72,1.72,0,0,1-.53.51l3.49-2a1.46,1.46,0,0,0,.29-.23l0,0,0,0,0-.05,0,0,0,0,0,0,0,0h0l0,0,0,0,0,0,0,0,0,0,0,0,0,0,0,0,0,0,0,0,0,0,0,0,0,0v-.42h0v-2.47h0l.11-39.93v-.1Z"/><path class="cls-57" d="M71,338.34v-3h0v-.95h0v-.61l0,0,0,0,0,0,0,0,0,0,0,0,0,0,0,0a6.28,6.28,0,0,0-.36-.62l-.11-.15c-.06-.08-.11-.17-.17-.24v-.07l0,0v0l0,0v0h-.59L66,330.36H64.89l0,0h0l-3.49,2a1.06,1.06,0,0,1,.57-.15h0a1.32,1.32,0,0,1,.63.19L65,333.82a2.38,2.38,0,0,1,.5.39h0a4,4,0,0,1,.39.48l.11.15a6.35,6.35,0,0,1,.39.67h0a8.83,8.83,0,0,1,.37.85h0c.11.3.21.62.3,1h0a12.26,12.26,0,0,1,.42,3.17l-.11,39.92a7.76,7.76,0,0,1-.37,2.5h0a2.45,2.45,0,0,1-.94,1.35l3.49-2a1.45,1.45,0,0,0,.29-.23l0,0,0,0,0-.05,0,0,0,0,0,0,0,0,0,0,0,0,0,0,0,0,0,0,0,0,0,0,0,0,0,0,0,0,0,0,0,0,0,0v-.42h0v-2.47h0L71,338.47v-.14Z"/><path class="cls-58" d="M82.06,344.74v-.95h0v-1.05h0v-2h0v-.57l0,0,0,0,0,0,0,0,0,0,0,0,0,0,0,0h0l0,0a6.28,6.28,0,0,0-.37-.63l-.11-.16c-.06-.08-.11-.17-.17-.24v-.12l0,0h-.6l-2.46-1.42H76l0,0h0l-3.49,2a1.07,1.07,0,0,1,.57-.15h0a1.33,1.33,0,0,1,.63.19l2.46,1.42a2.41,2.41,0,0,1,.5.4h0a4.07,4.07,0,0,1,.39.48l.11.16a6.35,6.35,0,0,1,.39.67h0a9.86,9.86,0,0,1,.67,1.81h0a12.24,12.24,0,0,1,.42,3.18l-.11,39.92a9.43,9.43,0,0,1-.1,1.37h0a6.22,6.22,0,0,1-.27,1.12h0a2.45,2.45,0,0,1-.94,1.35l3.49-2a1.46,1.46,0,0,0,.29-.22l0,0,0-.05,0-.05,0,0,0,0,0,0,0,0,0,0,0,0,0,0,0,0,0,0,0,0,0,0,0,0,0,0,0,0,0,0,0,0,0,0v-.42h0v-1.11h0v-1.36h0l.11-39.93v-.14Z"/><path class="cls-59" d="M93.45,351.32v-.94h0v-2.08h0v-1.62l0,0,0,0,0,0,0,0v0h0l0,0,0-.06a5.56,5.56,0,0,0-.53-.83s-.05-.09-.08-.13v-.12l0,0H91l-2.47-1.42H87.38l0,0h0l-3.49,2a1.06,1.06,0,0,1,.57-.15h0a1.31,1.31,0,0,1,.62.19l2.47,1.42a2.92,2.92,0,0,1,.8.76,5.56,5.56,0,0,1,.53.83l.06.11h0a9.83,9.83,0,0,1,.67,1.81h0a12.4,12.4,0,0,1,.37,2.09h0c0,.36,0,.72,0,1.08l-.11,39.92a9.51,9.51,0,0,1-.1,1.37h0a6.25,6.25,0,0,1-.27,1.13h0a3.47,3.47,0,0,1-.41.84h0a1.71,1.71,0,0,1-.53.51l3.49-2a1.45,1.45,0,0,0,.29-.22l0,0,0,0,0-.05,0,0,0,0,0,0,0,0h0l0,0,0,0,0,0,0,0,0,0,0,0,0,0,0,0,0,0,0,0,0,0,0,0v-.46h0v-1.12h0v-1.36h0l.11-39.92v-.14Z"/><path class="cls-60" d="M104.55,357.73v-.94h0v-2.08h0v-1.59l0,0,0,0,0,0,0,0,0,0v0h0l0,0,0-.06a5.57,5.57,0,0,0-.53-.83l-.08-.13v-.1l0,0v0h-.6l-2.47-1.42H98.47l0,0h0l-3.49,2a1.13,1.13,0,0,1,1.2,0l2.47,1.42a2.92,2.92,0,0,1,.8.76,5.59,5.59,0,0,1,.53.83l.06.11h0a9.83,9.83,0,0,1,.67,1.81h0a12.4,12.4,0,0,1,.37,2.09h0c0,.36,0,.72,0,1.08l-.11,39.92a9.51,9.51,0,0,1-.1,1.37h0a6.25,6.25,0,0,1-.27,1.13h0a2.44,2.44,0,0,1-.94,1.35l3.49-2a1.46,1.46,0,0,0,.29-.22l0,0,0,0,0-.05,0,0,0,0,0,0,0,0h0l0,0,0,0,0,0,0,0,0,0,0,0,0,0,0,0,0,0,0,0,0,0,0,0v-1.58h0V397.8h0l.11-39.92v-.14Z"/><path class="cls-61" d="M116,364.35v-1h0v-2.08h0v-1.62l0,0,0,0,0,0,0,0,0,0,0,0,0-.06a5.53,5.53,0,0,0-.53-.83s-.05-.09-.08-.13v-.12l0,0h-.6L111,356.34h-1.14l0,0h0l-3.49,2a1.06,1.06,0,0,1,.57-.15h0a1.32,1.32,0,0,1,.63.19l2.47,1.42a2.4,2.4,0,0,1,.5.4h0a4,4,0,0,1,.3.37,5.57,5.57,0,0,1,.53.83,11.14,11.14,0,0,1,1.1,4h0c0,.36,0,.72,0,1.08l-.11,39.92a7.81,7.81,0,0,1-.37,2.5h0a3.48,3.48,0,0,1-.41.84h0a1.71,1.71,0,0,1-.53.51l3.49-2a1.44,1.44,0,0,0,.29-.22l0,0,0,0,0-.05,0,0,0,0,0,0,0,0h0l0,0,0,0,0,0,0,0,0,0,0,0,0,0,0,0,0,0,0,0,0,0,0,0v-.46h0v-2.48h0l.11-39.92v-.1Z"/><path class="cls-62" d="M127,370.72v-.93h0V368.7h0v-1h0v-.94h0V366l0,0,0,0,0,0,0,0,0,0,0,0,0-.06a5.56,5.56,0,0,0-.53-.83s-.05-.09-.08-.13v-.12l0,0h-.6l-2.47-1.42H121l0,0h0l-3.49,2a1.06,1.06,0,0,1,.57-.15h0a1.32,1.32,0,0,1,.63.19l2.47,1.42a2.4,2.4,0,0,1,.5.4h0a4,4,0,0,1,.3.37,5.57,5.57,0,0,1,.53.83l.06.11h0a8.79,8.79,0,0,1,.37.85h0a11.59,11.59,0,0,1,.53,2h0c.06.35.11.71.14,1.07h0c0,.36,0,.72,0,1.08l-.11,39.92a6.12,6.12,0,0,1-.78,3.34h0a1.71,1.71,0,0,1-.53.51l3.49-2a1.44,1.44,0,0,0,.29-.22l0,0,0,0,0-.05,0,0,0,0,0,0,0,0h0l0,0,0,0,0,0,0,0,0,0,0,0,0,0,0,0,0,0,0,0,0,0,0,0v-1.58h0v-1.36h0l.11-39.92v-.14Z"/><path class="cls-63" d="M138.2,377.19v-1h0v-1.06h0v-2h0v-.68l0,0,0,0,0,0,0,0,0,0,0,0,0-.06a5.56,5.56,0,0,0-.53-.83s-.05-.09-.08-.13v-.1l0,0v0h-.6l-2.46-1.42h-1.14l0,0h0l-3.49,2a1.07,1.07,0,0,1,.57-.15h0a1.33,1.33,0,0,1,.63.19l2.46,1.42a2.92,2.92,0,0,1,.8.76,5.56,5.56,0,0,1,.53.83l.06.11h0a8.73,8.73,0,0,1,.37.85h0a12,12,0,0,1,.67,3h0c0,.36,0,.72,0,1.08l-.11,39.92a6.12,6.12,0,0,1-.78,3.34h0a1.71,1.71,0,0,1-.53.51l3.49-2a1.44,1.44,0,0,0,.29-.22l0,0,0,0,0-.05,0,0,0,0,0,0,0,0h0l0,0,0,0,0,0,0,0,0,0,0,0,0,0,0,0,0,0,0,0,0,0,0,0v-2.95h0l.11-39.92v-.1Z"/><path class="cls-64" d="M149.29,383.6v-1h0v-3h0v-.67l0,0,0,0,0,0,0,0v0h0l0,0,0-.06a5.57,5.57,0,0,0-.53-.83s-.05-.09-.08-.13v-.14h-.6l-2.47-1.42h-1.14l0,0h0l-3.49,2a1.06,1.06,0,0,1,.57-.15h0a1.33,1.33,0,0,1,.63.19l2.47,1.42a2.92,2.92,0,0,1,.8.76,5.57,5.57,0,0,1,.53.83l.06.11h0a11.33,11.33,0,0,1,1,3.9h0c0,.36,0,.72,0,1.08l-.11,39.92a6.12,6.12,0,0,1-.78,3.34h0a1.71,1.71,0,0,1-.53.51l3.49-2a1.44,1.44,0,0,0,.29-.22l0,0,0,0,0-.05,0,0,0,0,0,0,0,0h0l0,0,0,0,0,0,0,0,0,0,0,0,0,0,0,0,0,0,0,0,0,0,0,0v-2.95h0l.11-39.92v-.1Z"/><path class="cls-65" d="M160.69,390.14v-.94h0v-1.06h0v-1h0v-1.59l0,0,0,0,0,0,0,0,0,0v0h0l0,0,0-.06a5.57,5.57,0,0,0-.53-.83s-.05-.09-.08-.13v-.12l0,0h-.6l-2.47-1.42h-1.14l0,0h0l-3.49,2a1.13,1.13,0,0,1,1.2,0l2.47,1.42a2.4,2.4,0,0,1,.5.4h0a4,4,0,0,1,.3.37,5.56,5.56,0,0,1,.53.83,8.46,8.46,0,0,1,.43,1h0c.11.3.21.62.3,1h0c.09.33.16.67.23,1h0c.06.35.11.7.14,1.06h0c0,.36,0,.72,0,1.08l-.11,39.92a9.51,9.51,0,0,1-.1,1.37h0a4.72,4.72,0,0,1-.68,2h0a1.71,1.71,0,0,1-.53.51l3.49-2a1.46,1.46,0,0,0,.29-.22l0,0,0,0,0-.05,0,0,0,0,0,0,0,0h0l0,0,0,0,0,0,0,0,0,0,0,0,0,0,0,0,0,0,0,0,0,0,0,0v-.46h0v-1.12h0v-1.36h0l.11-39.92v-.14Z"/><path class="cls-66" d="M171.79,396.55v-.94h0v-1.06h0v-1h0v-.94h0v-.67l0,0,0,0,0,0,0,0v0h0l0,0,0-.06a5.54,5.54,0,0,0-.53-.83s-.05-.09-.08-.13v-.14h-.6l-2.47-1.42h-1.14l0,0h0l-3.49,2a1.06,1.06,0,0,1,.57-.15h0a1.32,1.32,0,0,1,.63.19l2.47,1.42a2.92,2.92,0,0,1,.8.76,5.59,5.59,0,0,1,.53.83l.06.11h0a8.75,8.75,0,0,1,.37.85h0a11.59,11.59,0,0,1,.53,2h0c.06.35.11.7.14,1.06h0c0,.36,0,.72,0,1.08l-.11,39.92a9.51,9.51,0,0,1-.1,1.37h0a6.25,6.25,0,0,1-.27,1.13h0a3.48,3.48,0,0,1-.41.84h0a1.71,1.71,0,0,1-.53.51h0l3.49-2a1.45,1.45,0,0,0,.29-.22l0,0,0,0,0-.05,0,0,0,0,0,0,0,0,0,0,0,0,0,0,0,0,0,0,0,0,0,0,0,0,0,0,0,0,0,0,0,0v-.46h0V438h0v-1.36h0l.11-39.92v-.14Z"/><path class="cls-67" d="M183.19,403.17v-1h0v-2.08h0V398.5l0,0,0,0,0,0,0,0,0,0v0h0l0,0,0-.06a5.57,5.57,0,0,0-.53-.83s-.05-.09-.08-.13v-.12l0,0h-.6l-2.47-1.42h-1.14l0,0h0l-3.49,2a1.13,1.13,0,0,1,1.2,0l2.47,1.42a2.92,2.92,0,0,1,.8.76,5.58,5.58,0,0,1,.53.83l.06.11h0a9.83,9.83,0,0,1,.67,1.81h0a12.4,12.4,0,0,1,.37,2.09h0c0,.36,0,.72,0,1.08l-.11,39.92a9.51,9.51,0,0,1-.1,1.37h0a6.26,6.26,0,0,1-.27,1.13h0a3.48,3.48,0,0,1-.41.84h0a1.71,1.71,0,0,1-.53.51l3.49-2a1.45,1.45,0,0,0,.29-.22l0,0,0,0,0-.05,0,0,0,0,0,0,0,0h0l0,0,0,0,0,0,0,0,0,0,0,0,0,0,0,0,0,0,0,0,0,0,0,0v-.46h0V443.2h0l.11-39.92v-.1Z"/><path class="cls-68" d="M194.29,409.61v-1h0V406.5h0v-.95h0v-.61l0,0,0,0,0,0,0,0,0,0,0,0,0,0,0,0a6.27,6.27,0,0,0-.36-.62l-.11-.15c-.06-.08-.11-.17-.18-.24v-.09l0,0,0,0v0h-.59l-2.47-1.42h-1.14l0,0h0l-3.49,2a1.06,1.06,0,0,1,.57-.15h0a1.32,1.32,0,0,1,.63.19l2.47,1.42a3,3,0,0,1,.89.88l.11.15a6.34,6.34,0,0,1,.39.67h0a8.8,8.8,0,0,1,.37.85h0c.11.3.21.62.3,1h0c.09.33.17.67.23,1h0a12.11,12.11,0,0,1,.19,2.15l-.11,39.92a7.76,7.76,0,0,1-.37,2.5h0a3.48,3.48,0,0,1-.41.84h0a1.72,1.72,0,0,1-.53.51l3.49-2a1.45,1.45,0,0,0,.29-.23l0,0,0,0,0-.05,0,0,0,0,0,0,0,0,0,0,0,0,0,0,0,0,0,0,0,0,0,0,0,0,0,0,0,0,0,0,0,0,0,0v-.42h0v-2.47h0l.11-39.92v-.06Z"/></g></g></svg>